<?xml version="1.0" encoding="UTF-8"?><svg id="b" xmlns="http://www.w3.org/2000/svg" xmlns:xlink="http://www.w3.org/1999/xlink" viewBox="0 0 93.999804687500728 161.000000000000909"><defs><clipPath id="e"><rect x=".000000000003183" width="93.999804687494816" height="161.000000000000909" fill="none"/></clipPath></defs><g id="c"><g id="d"><g clip-path="url(#e)" fill="none"><path d="m19.5,74.000000000003638c-10.75244140625,0-19.5-8.74755859375-19.5-19.5s8.74755859375-19.5,19.5-19.5,19.5,8.74755859375,19.5,19.5-8.74755859375,19.5-19.5,19.5Zm0-25c-3.03271484375,0-5.5,2.46728515625-5.5,5.5s2.46728515625,5.5,5.5,5.5,5.5-2.46728515625,5.5-5.5-2.46728515625-5.5-5.5-5.5Z"/><path d="m72.59619140625,125.000000000003638c-10.75244140625,0-19.5-8.74755859375-19.5-19.5s8.74755859375-19.5,19.5-19.5,19.5,8.74755859375,19.5,19.5-8.74755859375,19.5-19.5,19.5Zm0-25c-3.03271484375,0-5.5,2.46728515625-5.5,5.5s2.46728515625,5.5,5.5,5.5,5.5-2.46728515625,5.5-5.5-2.46728515625-5.5-5.5-5.5Z"/><rect x="-13.470869018930316" y="73.080320237548548" width="119.038173584735631" height="14.000004056160179" transform="translate(-44.599749720392808 62.297117731171205) rotate(-49.000747629092487)"/><rect x="-13.409553992273814" y="72.838150944050909" width="118.915299390797628" height="13.999967643155443" transform="translate(-44.400836556751074 62.13091776839309) rotate(-48.948297245219273)"/></g></g></g></svg>