<?xml version="1.0" encoding="UTF-8"?><svg id="b" xmlns="http://www.w3.org/2000/svg" xmlns:xlink="http://www.w3.org/1999/xlink" viewBox="0 0 100.484655761715658 161.000000000000909"><defs><clipPath id="e"><rect x=".000000000003638" width="100.484655761709291" height="161.000000000000909" fill="none"/></clipPath></defs><g id="c"><g id="d"><g clip-path="url(#e)" fill="none"><path d="m69.995056152347388,97.000000000001819l19.10986328125-19.1099853515625-9.2099609375-10.59002685546875-19.800048828130457,19.79998779296875-21.2099609375-21.2099609375,5.080078125-5.09002685546875.349975585939319-.3499755859375.089965820310681-.10003662109375c8.080078125-8.3499755859375,7.969970703130457-21.8399658203125-.260009765619543-30.0699462890625-8.359985351569776-8.35003662109375-21.9599609375-8.35003662109375-30.329956054691138,0-8.349975585939319,8.3699951171875-8.349975585939319,21.969970703125,0,30.3399658203125l5.27001953125,5.27001953125-10.609985351558862,10.5999755859375c-11.300048828130457,11.30999755859375-11.300048828130457,29.71002197265625,0,41.02001953125,5.619873046869543,5.6099853515625,13.069946289058862,8.42999267578125,20.52001953125,8.42999267578125,7.239990234369543,0,14.489990234369543-2.65997314453125,20.049926757808862-8l.109985351560681-.0999755859375,10.93994140625-10.94000244140625,18.10009765625,18.0999755859375h19.800048828130457l-28-28ZM23.715026855466931,40.179992675783069c2.89990234375-2.89996337890625,7.639892578130457-2.89996337890625,10.5400390625,0,2.819946289060681,2.82000732421875,2.889892578130457,7.44000244140625.179931640630457,10.35003662109375l-.349975585941138.3499755859375-5.099975585939319,5.1099853515625-5.27001953125-5.27001953125c-2.900024414060681-2.89996337890625-2.900024414060681-7.63995361328125,0-10.53997802734375Zm15.5400390625,67.760009765625c-5.85009765625,5.489990234375-15.190063476560681,5.3599853515625-20.880126953119543-.33001708984375-5.839965820319776-5.8499755859375-5.839965820319776-15.3699951171875,0-21.219970703125l10.610107421869543-10.60003662109375,21.2099609375,21.21002197265625-10.93994140625,10.94000244140625Z"/></g></g></g></svg>