<?xml version="1.0" encoding="UTF-8"?><svg id="b" xmlns="http://www.w3.org/2000/svg" xmlns:xlink="http://www.w3.org/1999/xlink" viewBox="0 0 101.29960937499709 161.000000000000909"><defs><clipPath id="e"><rect x=".000000000014552" width="101.299609374982538" height="161.000000000000909" fill="none"/></clipPath></defs><g id="c"><g id="d"><g clip-path="url(#e)" fill="none"><path d="m70.599804687501091,112.527289341518554c-6.579999999999927,3.140000000000327-13.840000000000146,4.780000000000655-21.200000000000728,4.780000000000655-15.549999999999272,0-28.200000000000728-12.650000000000546-28.200000000000728-28.200000000000728,0-15.549999999999272,12.650000000001455-28.199999999999818,28.200000000000728-28.199999999999818,7.360000000000582,0,14.6200000000008,1.640000000000327,21.200000000000728,4.779999999999745v16.280000000000655c-1.1200000000008-.850000000000364-2.290000000000873-1.630000000000109-3.5-2.329999999999927-5.350000000000364-3.090000000000146-11.470000000001164-4.730000000000473-17.700000000000728-4.730000000000473-7.829999999999927,0-14.200000000000728,6.369999999999891-14.200000000000728,14.199999999999818s6.3700000000008,14.200000000000728,14.200000000000728,14.200000000000728c6.229999999999563,0,12.350000000000364-1.640000000000327,17.690000000000509-4.730000000000473,1.219999999999345-.699999999999818,2.389999999999418-1.479999999999563,3.510000000000218-2.329999999999927v16.279999999999745Z"/><path d="m49.3994140625,138.507386997768663C22.16015625,138.507386997768663,0,116.346742466518663,0,89.107484654018663s22.16015625-49.400390625,49.3994140625-49.400390625,49.400390625,22.1611328125,49.400390625,49.400390625-22.1611328125,49.39990234375-49.400390625,49.39990234375Zm0-84.80029296875c-19.51953125,0-35.3994140625,15.88037109375-35.3994140625,35.400390625,0,19.51953125,15.8798828125,35.39990234375,35.3994140625,35.39990234375s35.400390625-15.88037109375,35.400390625-35.39990234375c0-19.52001953125-15.880859375-35.400390625-35.400390625-35.400390625Z"/></g></g></g></svg>