<?xml version="1.0" encoding="UTF-8"?><svg id="b" xmlns="http://www.w3.org/2000/svg" xmlns:xlink="http://www.w3.org/1999/xlink" viewBox="0 0 99.899999999999636 161.000000000000909"><defs><clipPath id="e"><rect x=".000000000015916" width="99.899999999984175" height="161.000000000000909" fill="none"/></clipPath></defs><g id="c"><g id="d"><g clip-path="url(#e)" fill="none"><path d="m49.39990234375,39.710021972657159C22.16015625,39.710021972657159,0,61.869995117188409,0,89.109985351563409s22.16015625,49.4000244140625,49.39990234375,49.4000244140625c27.240234375,0,49.39990234375-22.1600341796875,49.39990234375-49.4000244140625s-22.15966796875-49.39996337890625-49.39990234375-49.39996337890625Zm25.330078125,74.0899658203125l-14.47021484375-14.469970703125c9.39013671875-1.239990234375,16.66015625-9.29998779296875,16.66015625-19.030029296875,0-10.5899658203125-8.60986328125-19.20001220703125-19.2001953125-19.20001220703125h-22.02978515625l-7,.02001953125v55.760009765625h14v-15.32000732421875l15.31005859375,15.30999755859375h13.33984375c-6.02978515625,4.780029296875-13.65966796875,7.6400146484375-21.93994140625,7.6400146484375-19.52001953125,0-35.39990234375-15.8800048828125-35.39990234375-35.4000244140625,0-19.51995849609375,15.8798828125-35.39996337890625,35.39990234375-35.39996337890625s35.39990234375,15.8800048828125,35.39990234375,35.39996337890625c0,9.59002685546875-3.83984375,18.30999755859375-10.06982421875,24.69000244140625Zm-17.01025390625-28.29998779296875h-15.02978515625v-10.4000244140625h15.02978515625c2.8701171875,0,5.2001953125,2.33001708984375,5.2001953125,5.20001220703125s-2.330078125,5.20001220703125-5.2001953125,5.20001220703125Z"/></g></g></g></svg>