<?xml version="1.0" encoding="UTF-8"?><svg id="b" xmlns="http://www.w3.org/2000/svg" xmlns:xlink="http://www.w3.org/1999/xlink" viewBox="0 0 42.671240234370998 161.000000000000909"><defs><clipPath id="e"><rect x=".000000000001364" width="42.67124023436827" height="161.000000000000909" fill="none"/></clipPath></defs><g id="c"><g id="d"><g clip-path="url(#e)" fill="none"><polygon points="11.463989257808862 60.199996948244006 18.463989257808862 42.600006103517444 25.463989257808862 60.199996948244006 11.463989257808862 60.199996948244006 11.463989257808862 60.199996948244006"/><polygon points="25.463989257808862 25.099998474122913 18.463989257808862 42.600006103517444 11.463989257808862 25.099998474122913 25.463989257808862 25.099998474122913 25.463989257808862 25.099998474122913"/><polygon points="29.099243164058862 58.26709747314635 18.463989257808862 42.650001525880725 36.927978515628638 46.660575866701038 29.099243164058862 58.26709747314635 29.099243164058862 58.26709747314635"/><polygon points="7.828735351558862 27.032897949220569 18.463989257808862 42.650001525880725 0 38.639427185060413 7.828735351558862 27.032897949220569 7.828735351558862 27.032897949220569"/><polygon points="0 46.660575866701038 18.5380859375 42.599998474122913 7.828735351558862 58.26709747314635 0 46.660575866701038 0 46.660575866701038"/><polygon points="36.927978515628638 38.639427185060413 18.5380859375 42.599998474122913 29.099243164058862 27.032897949220569 36.927978515628638 38.639427185060413 36.927978515628638 38.639427185060413"/></g></g></g></svg>