<?xml version="1.0" encoding="UTF-8"?><svg id="b" xmlns="http://www.w3.org/2000/svg" xmlns:xlink="http://www.w3.org/1999/xlink" viewBox="0 0 781.700000000000728 161"><defs><clipPath id="f"><rect x="701.700000000001637" width="79.999999999997272" height="161" fill="none"/></clipPath></defs><g id="c"><g id="e"><g clip-path="url(#f)" fill="none"><path id="g" d="m764.970019531248909,47.84002685546875c-.42999267578125-1.52001953125-.8900146484375-3.030029296875-1.3900146484375-4.52001953125q0-.010009765625-.010009765625-.02001953125c-.969970703125-2.4599609375-2.260009765625-4.76995849609375-3.80999755859375-6.869995117188409-3.82000732421875-5.200012207030341-9.249999999999091-9.130004882811591-15.549987792967841-11.08001708984375-1.97998046875-.609985351561591-4.0400390625-1.019958496092841-6.1600341796875-1.2099609375-.940002441407159-.100036621092841-1.889953613282159-.140014648436591-2.8499755859375-.140014648436591-.96002197265625,0-1.90997314453125.03997802734375-2.8499755859375.140014648436591-2.1199951171875.190002441407159-4.1800537109375.599975585938409-6.1600341796875,1.2099609375-6.299987792969659,1.950012207032159-11.72998046875,5.880004882813409-15.549987792969659,11.08001708984375-1.549987792967841,2.100036621094659-2.840026855467841,4.410034179688409-3.809997558592841,6.869995117188409q-.010009765625.010009765625-.010009765625.02001953125c-.58001708984375,1.46002197265625-1.03997802734375,2.969970703125-1.3900146484375,4.52001953125-2.42999267578125,8.63995361328125-3.72998046875,17.75-3.72998046875,27.15997314453125,0,4.04998779296875.239990234375,8.04998779296875.710021972655341,11.969970703125.349975585938409,5.890014648436591,1.529968261719659,11.56005859375,3.449951171875,16.880004882811591.010009765625.030029296875.02001953125.07000732421875.030029296875.11004638671875.27001953125.91998291015625.580017089844659,1.829956054688409.929992675782159,2.719970703125q0,.010009765625.010009765625.02001953125c.5999755859375,1.519958496094659,1.320007324217841,2.979980468750909,2.1500244140625,4.369995117188409l.00994873046875.010009765625c4.19000244140625,7.049987792967841,11.150024414061591,12.260009765625,19.369995117186591,14.14996337890625,1.300048828125.29998779296875,2.640014648438409.510009765625,3.990051269532159.630004882811591.94000244140625.099975585938409,1.88995361328125.140014648438409,2.8499755859375.140014648438409.960021972655341,0,1.909973144530341-.0400390625,2.8499755859375-.140014648438409,1.350036621092841-.119995117186591,2.69000244140625-.330017089842841,3.99005126953125-.630004882811591,8.219970703125-1.88995361328125,15.179992675780341-7.099975585938409,19.369995117186591-14.14996337890625l.00994873046875-.010009765625c.83001708984375-1.3900146484375,1.550048828125-2.85003662109375,2.1500244140625-4.369995117188409q.010009765625-.010009765625.010009765625-.02001953125c.3499755859375-.890014648436591.65997314453125-1.79998779296875.92999267578125-2.719970703125.010009765625-.0400390625.02001953125-.08001708984375.030029296875-.11004638671875,1.91998291015625-5.319946289061591,3.0999755859375-10.989990234375,3.449951171875-16.880004882811591.47003173828125-3.91998291015625.71002197265625-7.91998291015625.71002197265625-11.969970703125,0-9.40997314453125-1.29998779296875-18.52001953125-3.72998046875-27.15997314453125Zm-10.33001708984375,30.14996337890625c-.080017089842841,2.60003662109375-.280029296875,5.160034179686591-.599975585936591,7.690002441405341v.039978027344659c-.55999755859375,4.470031738280341-1.45001220703125,8.83001708984375-2.670043945313409,13.06005859375,0,.01995849609375-.010009765625.02996826171875-.010009765625.04998779296875-.159973144530341.539978027342841-.319946289061591,1.070007324217841-.47998046875,1.599975585936591-.510009765625,1.309997558594659-1.080017089842841,2.590026855469659-1.710021972655341,3.840026855469659,0,.010009765625-.009948730469659.02996826171875-.019958496094659.03997802734375-2.919982910155341,4.6199951171875-8.080017089842841,7.69000244140625-13.950012207030341,7.69000244140625s-11.030029296875-3.07000732421875-13.95001220703125-7.69000244140625c-.010009765625-.010009765625-.01995849609375-.02996826171875-.01995849609375-.03997802734375-.6300048828125-1.25-1.20001220703125-2.530029296875-1.71002197265625-3.840026855469659-.160034179688409-.52996826171875-.32000732421875-1.05999755859375-.47998046875-1.599975585936591,0-.02001953125-.010009765625-.030029296875-.010009765625-.04998779296875-1.22003173828125-4.23004150390625-2.11004638671875-8.590026855469659-2.670043945313409-13.06005859375v-.039978027344659c-.319946289061591-2.52996826171875-.519958496092841-5.089965820311591-.599975585936591-7.690002441405341-.03997802734375-.989990234375-.05999755859375-1.989990234375-.05999755859375-2.989990234375s.02001953125-2,.05999755859375-2.989990234375c.239990234375-7.19000244140625,1.359985351561591-14.150024414063409,3.27001953125-20.7900390625,0-.019958496094659.010009765625-.029968261719659.010009765625-.049987792969659.29998779296875-1.03997802734375.619995117186591-2.07000732421875.9599609375-3.089965820311591,0-.010009765625,0-.02001953125.010009765625-.030029296875,1.34002685546875-3.140014648438409,3.619995117186591-5.78997802734375,6.489990234375-7.57000732421875,2.530029296875-1.570007324219659,5.510009765625-2.47998046875,8.70001220703125-2.47998046875,3.190002441405341,0,6.169982910155341.909973144530341,8.700012207030341,2.47998046875,2.869995117188409,1.780029296875,5.149963378907159,4.429992675780341,6.489990234375,7.57000732421875.010009765625.010009765625.010009765625.02001953125.010009765625.030029296875.339965820313409,1.019958496092841.659973144532159,2.049987792967841.9599609375,3.089965820311591,0,.02001953125.010009765625.030029296875.010009765625.049987792969659,1.910034179688409,6.640014648436591,3.030029296875,13.60003662109375,3.27001953125,20.7900390625.039978027344659.989990234375.059997558594659,1.989990234375.059997558594659,2.989990234375s-.02001953125,2-.059997558594659,2.989990234375Z"/></g></g></g></svg>