<?xml version="1.0" encoding="UTF-8"?><svg id="b" xmlns="http://www.w3.org/2000/svg" xmlns:xlink="http://www.w3.org/1999/xlink" viewBox="0 0 80 161"><defs><clipPath id="e"><rect x=".000000000001819" width="79.999999999996817" height="161" fill="none"/></clipPath></defs><g id="c"><g id="d"><g clip-path="url(#e)" fill="none"><path id="f" d="m20.20001220703125,103.969970703125c-1.550048828125,2.190002441407159-2.8800048828125,4.5400390625-3.96002197265625,7.030029296875h39v14H.239990234375v-2.099975585936591c0-10.140014648438409,3.21002197265625-19.530029296875,8.66998291015625-27.21002197265625.1500244140625-.220031738282159.30999755859375-.429992675782159.470031738282159-.6500244140625.349975585936591-.4599609375.7099609375-.91998291015625,1.059997558592841-1.3800048828125.200012207032159-.25.399963378907159-.5.5999755859375-.739990234375l.030029296875-.03997802734375c3.029968261719659-3.760009765625,6.39996337890625-7.22998046875,10.059997558594659-10.359985351563409l13.7099609375-11.630004882811591c1.300048828125-1.109985351563409,2.5400390625-2.27001953125,3.730041503905341-3.46002197265625.45001220703125-.450012207032159.89996337890625-.909973144532159,1.3399658203125-1.3800048828125.3800048828125-.39996337890625.739990234375-.809997558594659,1.11004638671875-1.219970703125,1.15997314453125-1.42999267578125,2.03997802734375-3.02001953125,2.619995117188409-4.67999267578125.589965820311591-1.670043945313409.880004882811591-3.410034179688409.889953613280341-5.160034179688409.02001953125-4.02001953125-1.50994873046875-8.049987792967841-4.5799560546875-11.119995117186591-3.070007324217841-3.07000732421875-7.090026855467841-4.599975585938409-11.110046386717841-4.589965820313409-2.239990234375,0-4.469970703125.47998046875-6.539978027344659,1.429992675782159-.28997802734375.1300048828125-.58001708984375.279968261717841-.8699951171875.42999267578125-3.77001953125,1.97998046875-7.1500244140625,4.82000732421875-9.820007324217841,8.47998046875-.369995117188409.5-.719970703125,1.02001953125-1.039978027344659,1.53997802734375L0,41.97998046875c4.469970703125-5.909973144530341,10.130004882813409-10.5,16.44000244140625-13.699951171875.47998046875-.240051269530341.969970703125-.480041503905341,1.450012207032159-.690002441405341,3.469970703125-1.530029296875,7.199951171875-2.309997558594659,10.949951171875-2.309997558594659,7.660034179686591-.02001953125,15.320007324217841,2.889953613282159,21.160034179686591,8.68994140625,5.849975585938409,5.800048828125,8.760009765625,13.410034179688409,8.739990234375,21.010009765625h-.010009765625c-.010009765625,6.590026855469659-2.239990234375,13.190002441407159-6.67999267578125,18.590026855469659-.710021972655341.77001953125-1.3900146484375,1.54998779296875-2.1199951171875,2.29998779296875-.840026855467841.890014648436591-1.69000244140625,1.760009765625-2.559997558592841,2.619995117186591-.97998046875.97998046875-4.809997558594659,4.210021972657159-5.880004882813409,5.119995117188409l-11.260009765625,9.5400390625c-3.010009765625,2.579956054686591-5.77001953125,5.42999267578125-8.260009765625,8.50994873046875l-.01995849609375.0400390625c-.1700439453125.19000244140625-.330017089842841.39996337890625-.49005126953125.5999755859375-.28997802734375.3800048828125-.589965820311591.760009765625-.87994384765625,1.1400146484375-.1300048828125.17999267578125-.260009765625.3499755859375-.3800048828125.529968261717841Z"/></g></g></g></svg>