<?xml version="1.0" encoding="UTF-8"?><svg id="b" xmlns="http://www.w3.org/2000/svg" xmlns:xlink="http://www.w3.org/1999/xlink" viewBox="0 0 781.700000000000728 161"><defs><clipPath id="e"><rect x=".000000000001819" width="79.999999999996362" height="161" fill="none"/></clipPath></defs><g id="c"><g id="d"><g clip-path="url(#e)" fill="none"><path id="f" d="m63.119995117186591,92.5c0,1.65997314453125-.119995117186591,3.28997802734375-.359985351561591,4.880004882811591-2.360046386719659,16.190002441407159-16.300048828125,28.619995117188409-33.140014648438409,28.619995117188409-1.79998779296875,0-3.57000732421875-.140014648438409-5.29998779296875-.41998291015625-4.600036621092841-.730041503907159-8.9000244140625-2.4000244140625-12.6700439453125-4.80999755859375-.02996826171875-.010009765625-.05999755859375-.030029296875-.0799560546875-.050048828125-4.320007324217841-2.38995361328125-8.22003173828125-5.43994140625-11.570007324217841-9.01995849609375l1.22998046875-1.41998291015625,8.02001953125-9.22003173828125c2.679992675780341,3.0999755859375,5.919982910155341,5.71002197265625,9.559997558592841,7.66998291015625.010009765625.010009765625.01995849609375.010009765625.03997802734375.02001953125,2.530029296875,1.359985351561591,5.27001953125,2.40997314453125,8.150024414063409,3.07000732421875.859985351561591.1199951171875,1.72998046875.17999267578125,2.619995117186591.17999267578125,10.76995849609375,0,19.5-8.72998046875,19.5-19.5,0-9.369995117188409-6.60003662109375-17.19000244140625-15.410034179686591-19.05999755859375-.149963378907159-.039978027344659-.289978027344659-.070007324219659-.440002441407159-.090026855469659-.699951171875-.109985351561591-1.38995361328125-.199951171875-2.0899658203125-.279968261717841h-.010009765625c-3.75-.440002441407159-7.469970703125-.5-11.1199951171875-.210021972657159l7.97998046875-13.820007324217841.1300048828125-.22998046875,10.45001220703125-18.1099853515625H4.320007324217841v-14h56.3800048828125l-8.09002685546875,14-11.510009765625,19.940002441405341-.17999267578125.309997558594659c11.239990234375,4.02996826171875,19.70001220703125,13.8900146484375,21.72998046875,25.929992675780341.309997558594659,1.830017089844659.47003173828125,3.700012207032159.47003173828125,5.619995117188409Z"/></g></g></g></svg>