<?xml version="1.0" encoding="UTF-8"?><svg id="b" xmlns="http://www.w3.org/2000/svg" xmlns:xlink="http://www.w3.org/1999/xlink" viewBox="0 0 388.5 161"><defs><clipPath id="e"><rect x=".000000000001819" width="79.999999999996362" height="161" fill="none"/></clipPath></defs><g id="c"><g id="d"><g clip-path="url(#e)" fill="none"><path id="f" d="m63.79998779296875,93c0,1.91998291015625-.1600341796875,3.79998779296875-.470031738280341,5.619995117186591-2.669982910157159,15.549987792969659-16.219970703125,27.380004882813409-32.529968261719659,27.380004882813409-12.35003662109375,0-23.4000244140625-5.54998779296875-30.79998779296875-14.29998779296875l9.9599609375-9.96002197265625c4.79998779296875,6.239990234375,12.35003662109375,10.260009765625,20.84002685546875,10.260009765625,10.489990234375,0,19-8.510009765625,19-19,0-7.90997314453125-4.83001708984375-14.69000244140625-11.710021972655341-17.54998779296875-.25-.1099853515625-.510009765625-.20001220703125-.760009765625-.299987792969659-2.139953613282159-.809997558592841-4.320007324219659-1.460021972655341-6.529968261719659-1.950012207030341-2.760009765625-.6099853515625-5.55999755859375-.98004150390625-8.3599853515625-1.090026855469659-4.800048828125-.2099609375-9.610046386717841.309997558594659-14.260009765625,1.530029296875l.010009765625-.070007324217841.5899658203125-5.1500244140625,1.070007324219659-9.469970703125,2.200012207030341-19.25,1.5899658203125-14h47.05999755859375v14H26.13995361328125l-2.1099853515625,18.450012207030341c5.95001220703125.349975585938409,11.96002197265625,1.569946289063409,17.840026855469659,3.75.219970703125.079956054688409.449951171875.159973144532159.669982910155341.25.3699951171875.139953613282159.739990234375.289978027344659,1.1099853515625.440002441407159,11.84002685546875,5.009948730467841,20.1500244140625,16.739990234375,20.1500244140625,30.40997314453125Z"/></g></g></g></svg>