<?xml version="1.0" encoding="UTF-8"?><svg id="b" xmlns="http://www.w3.org/2000/svg" xmlns:xlink="http://www.w3.org/1999/xlink" viewBox="0 0 185.000000000001819 161"><defs><clipPath id="e"><rect x=".000000000001819" width="79.999999999996362" height="161" fill="none"/></clipPath></defs><g id="c"><g id="d"><g clip-path="url(#e)" fill="none"><path id="f" d="m55.101304591210464,71.897159460929288c-5.049987792967841-4.94000244140625-11.329956054686591-7.840026855467841-17.819946289061591-8.72003173828125-.02001953125-.010009765625-.030029296875-.010009765625-.0400390625,0-5.7099609375-.76995849609375-11.589965820313409.030029296875-16.94000244140625,2.400024414063409h-.010009765625c-.409973144532159.169982910155341-.8199462890625.359985351561591-1.22998046875.580017089842841,5.989990234375-13.1199951171875,16.1099853515625-23.97003173828125,28.70001220703125-30.8800048828125l-1.25-1.7900390625-6.80999755859375-9.72998046875C22.421311915430124,33.667117957023038,9.151353419335464,49.787174109366788,2.941331446680124,69.067142371086447c-.719970703125,2.049987792967841-1.299987792969659,4.130004882811591-1.75,6.22998046875,0,.02001953125-.010009765625.050048828125-.010009765625.070007324217841-.67999267578125,3.1700439453125-1.059997558594659,6.3699951171875-1.15997314453125,9.57000732421875-.19000244140625,6.75.890014648436591,13.47003173828125,3.16998291015625,19.7900390625,0,.01995849609375.010009765625.04998779296875.02001953125.069946289063409.0899658203125.240051269530341.179992675780341.480041503905341.26995849609375.710021972655341-.00994873046875.010009765625-.00994873046875.030029296875.010009765625.039978027344659.109985351561591.309997558592841.23004150390625.610046386717841.359985351561591.920043945311591.010009765625.03997802734375.030029296875.079956054688409.050048828125.130004882813409,1.579956054688409,3.799987792967841,3.929992675782159,7.339965820311591,7.059997558594659,10.399963378905341,2.6199951171875,2.559997558594659,5.57000732421875,4.580017089844659,8.7099609375,6.0400390625,7.33001708984375,3.429931640625,15.700012207030341,3.87994384765625,23.300048828125,1.3599853515625h.00994873046875c4.630004882811591-1.52001953125,8.96002197265625-4.1500244140625,12.60003662109375-7.8800048828125,12.19000244140625-12.450012207030341,11.97998046875-32.429992675780341-.480041503907159-44.6199951171875Zm-14.949951171875,38.440002441407159c-8.330017089842841,3.739990234375-18.030029296875.390014648436591-22.360046386717841-7.460021972657159-.01995849609375-.039978027342841-.03997802734375-.080017089842841-.0699462890625-.1300048828125-.21002197265625-.3800048828125-.4000244140625-.77996826171875-.580017089844659-1.179992675780341-.440002441405341-.97998046875-.7900390625-1.989990234375-1.02001953125-3-.02001953125-.029968261719659-.029968261717841-.059997558594659-.029968261717841-.089965820313409-1.08001708984375-3.35003662109375-1.710021972657159-6.86004638671875-1.84002685546875-10.45001220703125v-.010009765625c2.79998779296875-4.450012207030341,7.05999755859375-7.8800048828125,12.099975585936591-9.6400146484375,2.380004882813409-.8499755859375,4.940002441407159-1.309997558592841,7.600036621094659-1.330017089842841,6.30999755859375.340026855467841,12.210021972655341,4.110046386717841,14.969970703125,10.280029296875,3.940002441405341,8.779968261717841.010009765625,19.080017089842841-8.769958496094659,23.010009765625Z"/></g></g></g></svg>