<?xml version="1.0" encoding="UTF-8"?><svg id="b" xmlns="http://www.w3.org/2000/svg" xmlns:xlink="http://www.w3.org/1999/xlink" viewBox="0 0 580 161"><defs><clipPath id="f"><rect x="500.000000000001819" width="79.999999999996362" height="161" fill="none"/></clipPath></defs><g id="c"><g id="e"><g clip-path="url(#f)" fill="none"><path id="g" d="m564.91998291015625,60.62005615234375c-.3299560546875-5.690002441407159-1.739990234375-11.10003662109375-4.02996826171875-16.010009765625-1.739990234375-4.5-4.48004150390625-8.5-7.95001220703125-11.730041503907159-2.70001220703125-2.509948730467841-5.84002685546875-4.549987792967841-9.29998779296875-5.989990234375-3.739990234375-1.559997558592841-7.84002685546875-2.419982910155341-12.1400146484375-2.419982910155341-9.96002197265625,0-18.84002685546875,4.6199951171875-24.6199951171875,11.84002685546875-4.30999755859375,5.37994384765625-6.8800048828125,12.219970703125-6.8800048828125,19.65997314453125,0,17.4000244140625,14.0999755859375,31.5,31.5,31.5,3.1400146484375,0,6.16998291015625-.46002197265625,9.030029296875-1.309997558594659,1.67999267578125-.5,3.29998779296875-1.140014648436591,4.8499755859375-1.900024414061591-3.760009765625,8.59002685546875-9.280029296875,16.23004150390625-16.09002685546875,22.48004150390625-4.19000244140625,3.8399658203125-8.8800048828125,7.159973144530341-13.949951171875,9.8299560546875l11.64996337890625,9.42999267578125c16.760009765625-10.489990234375,29.4000244140625-26.969970703125,34.92999267578125-46.43994140625.010009765625-.02001953125.010009765625-.0400390625.010009765625-.050048828125,1.97998046875-5.02996826171875,3.07000732421875-10.50994873046875,3.07000732421875-16.239990234375,0-.890014648438409-.030029296875-1.76995849609375-.08001708984375-2.64996337890625Zm-26.5899658203125,11.4599609375s-.010009765625.010009765625-.02001953125.010009765625c-2.33001708984375.830017089842841-4.83001708984375,1.309997558592841-7.44000244140625,1.3699951171875-9.3699951171875-.330017089844659-16.8699951171875-8.039978027344659-16.8699951171875-17.489990234375,0-9.65997314453125,7.84002685546875-17.5,17.5-17.5,4.45001220703125,0,8.510009765625,1.659973144530341,11.5999755859375,4.409973144530341l.02001953125.02001953125c1.95001220703125,2.140014648438409,3.59002685546875,4.549987792969659,4.8599853515625,7.179992675782159,1.61004638671875,3.309997558592841,2.6300048828125,6.97003173828125,2.9200439453125,10.820007324217841v.02001953125c.02996826171875.200012207032159.03997802734375.390014648438409.03997802734375.589965820313409v.010009765625c-.030029296875.04998779296875-.05999755859375.109985351561591-.09002685546875.160034179686591-2.79998779296875,4.789978027344659-7.22998046875,8.5-12.51995849609375,10.399963378907159Z"/></g></g></g></svg>