<?xml version="1.0" encoding="UTF-8"?><svg id="b" xmlns="http://www.w3.org/2000/svg" xmlns:xlink="http://www.w3.org/1999/xlink" viewBox="0 0 62.289648437499636 161.000000000000909"><defs><clipPath id="e"><rect x=".000000000004547" width="62.289648437495089" height="161.000000000000909" fill="none"/></clipPath></defs><g id="c"><g id="d"><g clip-path="url(#e)" fill="none"><path d="m56.490234375,77.820007324219659c-.34033203125-1.10003662109375-.75-2.17999267578125-1.23046875-3.239990234375-3.73974609375-8.17999267578125-11.51953125-13.84002685546875-20.78955078125-15.1500244140625-1.77001953125-.25-3.56005859375-.42999267578125-5.35009765625-.52996826171875-1.2099609375-.07000732421875-2.4501953125-.10003662109375-3.68017578125-.10003662109375-1.10986328125,0-2.2197265625.030029296875-3.31982421875.09002685546875l-15.1201171875,17.3900146484375c5.85009765625-2.31005859375,12.06005859375-3.48004150390625,18.43994140625-3.48004150390625.97021484375,0,1.9599609375.030029296875,2.89990234375.08001708984375,1.39013671875.08001708984375,2.7900390625.219970703125,4.169921875.40997314453125,4.46044921875.6300048828125,8.2900390625,3.36004638671875,10.01025390625,7.11004638671875.30029296875.65997314453125.55029296875,1.3399658203125.72998046875,2.02996826171875-7.580078125,2-15.5400390625,3.07000732421875-23.75,3.07000732421875-10.75,0-19.5,8.75-19.5,19.5s8.75,19.5,19.5,19.5c8.31005859375,0,16.41015625-.95001220703125,24.18994140625-2.75v2.75h14v-38.70001220703125c0-2.739990234375-.39990234375-5.40997314453125-1.19970703125-7.97998046875Zm-12.80029296875,29.489990234375c-7.7197265625,2.08001708984375-15.830078125,3.19000244140625-24.18994140625,3.19000244140625-3.02978515625,0-5.5-2.469970703125-5.5-5.5s2.47021484375-5.5,5.5-5.5c8.31005859375,0,16.41015625-.95001220703125,24.18994140625-2.75v10.55999755859375Z"/></g></g></g></svg>