<?xml version="1.0" encoding="UTF-8"?><svg id="b" xmlns="http://www.w3.org/2000/svg" xmlns:xlink="http://www.w3.org/1999/xlink" viewBox="0 0 117.054129464282596 161.000000000000909"><defs><clipPath id="e"><rect x=".000000000021828" width="117.054129464260768" height="161.000000000000909" fill="none"/></clipPath></defs><g id="c"><g id="d"><g clip-path="url(#e)" fill="none"><path d="m109.6298828125,93.000000000000909c0-18.20001220703125-14.7998046875-33-33-33-9.68994140625,0-18.419921875,4.20001220703125-24.47021484375,10.8800048828125-4.19970703125-5.4000244140625-10.5-9.030029296875-17.68994140625-10.04998779296875-1.77001953125-.25-3.56005859375-.42999267578125-5.35009765625-.530029296875-1.2099609375-.07000732421875-2.44970703125-.0999755859375-3.6796875-.0999755859375-1.10986328125,0-2.22021484375.02996826171875-3.3203125.0899658203125l-15.11962890625,17.3900146484375c5.85009765625-2.30999755859375,12.06005859375-3.47998046875,18.43994140625-3.47998046875.9697265625,0,1.9599609375.02996826171875,2.89990234375.0799560546875,1.39013671875.08001708984375,2.7900390625.22003173828125,4.169921875.4100341796875,4.4599609375.6300048828125,8.2900390625,3.3599853515625,10.01025390625,7.1099853515625.2998046875.6600341796875.5498046875,1.34002685546875.72998046875,2.030029296875-7.580078125,2-15.5400390625,3.07000732421875-23.75,3.07000732421875-10.75,0-19.5,8.75-19.5,19.5s8.75,19.5,19.5,19.5c8.31005859375,0,15.98974609375-.780029296875,24.18994140625-2.75,6.4599609375-1.550048828125,11.43994140625-4.1800537109375,13.25-5.22003173828125,6.77001953125,5.030029296875,15.580078125,8.07000732421875,25.2099609375,8.07000732421875,10.06982421875,0,19.419921875-1.52001953125,27.47998046875-4.20001220703125v-14.95001220703125c-7.19970703125,3.09002685546875-16.72021484375,5.1500244140625-27.47998046875,5.1500244140625-10.330078125,0-19.18994140625-4.97998046875-22.7998046875-12h50.27978515625v-7Zm-65.93994140625,15.71002197265625c-7.72021484375,2.0799560546875-15.830078125,3.19000244140625-24.18994140625,3.19000244140625-3.0302734375,0-5.5-2.47003173828125-5.5-5.5,0-3.030029296875,2.4697265625-5.5,5.5-5.5,8.31005859375,0,16.40966796875-.95001220703125,24.18994140625-2.75v10.55999755859375Zm15.27978515625-22.71002197265625c2.7900390625-7.02001953125,9.64990234375-12,17.66015625-12s14.8701171875,4.97998046875,17.66015625,12h-35.3203125Z"/></g></g></g></svg>