<?xml version="1.0" encoding="UTF-8"?><svg id="b" xmlns="http://www.w3.org/2000/svg" xmlns:xlink="http://www.w3.org/1999/xlink" viewBox="0 0 106.209570312499636 161.000000000000909"><defs><clipPath id="e"><rect x=".000000000005457" width="106.209570312494179" height="161.000000000000909" fill="none"/></clipPath></defs><g id="c"><g id="d"><g clip-path="url(#e)" fill="none"><path d="m83.650390625,132.100097656253638c-.681640625,0-1.3974609375-.0419921875-2.126953125-.12451171875-6.6865234375-.736328125-12.26171875-4.8955078125-14.998046875-10.6748046875-4.603515625,2.44091796875-9.7919921875,3.7490234375-15.2158203125,3.7490234375-17.9208984375,0-32.5-14.57958984375-32.5-32.5s14.5791015625-32.5,32.5-32.5c10.3203125,0,19.7939453125,4.73828125,25.990234375,13l1.400390625,1.86669921875.0166015625,38.58740234375c.1640625,2.3173828125,2.013671875,4.2275390625,4.390625,4.47314453125l.1142578125.0126953125c.1123046875.01318359375.255859375.02001953125.4287109375.02001953125,2.6357421875,0,4.8056640625-2.06201171875,4.9384765625-4.6943359375l.021484375-.31005859375v-21.53515625c-.5634765625-20.962890625-16.9326171875-37.3701171875-37.30078125-37.3701171875-20.572265625,0-37.3095703125,17.24853515625-37.3095703125,38.44970703125,0,10.6630859375,4.1376953125,20.57568359375,11.650390625,27.912109375l-9.78125,10.0166015625C5.6357421875,120.485351562503638,0,107.015625000003638,0,92.549804687503638c0-28.9208984375,23.017578125-52.44970703125,51.3095703125-52.44970703125,13.5087890625,0,26.26171875,5.3212890625,35.9091796875,14.98388671875,9.583984375,9.5986328125,15.048828125,22.42724609375,15.3896484375,36.1220703125.0107421875.447265625.01171875.89599609375.01171875,1.34375,0,.41748046875-.0009765625.83447265625-.009765625,1.251953125l-.0107421875,19.3486328125c0,.283203125-.00390625.619140625-.03515625,1.0078125-.52734375,10.076171875-8.798828125,17.94189453125-18.9140625,17.94189453125Zm4.9599609375-19.07568359375l-.0029296875.03515625.0029296875-.03515625Zm-37.30078125-38.974609375c-10.201171875,0-18.5,8.29931640625-18.5,18.5,0,10.201171875,8.298828125,18.5,18.5,18.5,5.1416015625,0,9.9150390625-2.06787109375,13.390625-5.73974609375v-25.5205078125c-3.4755859375-3.67138671875-8.2490234375-5.73974609375-13.390625-5.73974609375Z"/></g></g></g></svg>