<?xml version="1.0" encoding="UTF-8"?><svg id="b" xmlns="http://www.w3.org/2000/svg" xmlns:xlink="http://www.w3.org/1999/xlink" viewBox="0 0 68.799609374987995 161.000000000000909"><defs><clipPath id="e"><rect x=".000000000004547" width="68.799609374983447" height="161.000000000000909" fill="none"/></clipPath></defs><g id="c"><g id="d"><g clip-path="url(#e)" fill="none"><path d="m45.130126953119543,62.690002441408069c2.449951171880457-3.80999755859375,3.869873046880457-8.33001708984375,3.869873046880457-13.19000244140625,0-13.510009765625-10.989990234380457-24.5-24.5-24.5H0v99.5h32.25c17.780029296869543,0,32.25-14.469970703125,32.25-32.25,0-13.20001220703125-7.97998046875-24.58001708984375-19.369873046880457-29.55999755859375Zm-20.630126953119543-23.69000244140625c5.7900390625,0,10.5,4.71002197265625,10.5,10.5s-4.7099609375,10.5-10.5,10.5h-10.5v-21h10.5Zm7.75,71.5H14v-36.5h18.25c10.06005859375,0,18.25,8.19000244140625,18.25,18.25s-8.18994140625,18.25-18.25,18.25Z"/></g></g></g></svg>