<?xml version="1.0" encoding="UTF-8"?><svg id="b" xmlns="http://www.w3.org/2000/svg" xmlns:xlink="http://www.w3.org/1999/xlink" viewBox="0 0 56.49951171875 161.000000000000909"><defs><clipPath id="d"><rect x=".000000000004093" width="56.499511718745453" height="161.000000000000909" fill="none"/></clipPath></defs><g id="c"><g clip-path="url(#d)" fill="none"><path d="m54,63.869995117188409v15.34002685546875c-6.27001953125-3.32000732421875-13.419921875-5.21002197265625-21-5.21002197265625-.330078125,0-.64990234375,0-.97998046875.02001953125-10.02001953125.510009765625-18.02001953125,8.8299560546875-18.02001953125,18.97998046875s8,18.469970703125,18.02001953125,18.97998046875c.330078125.02001953125.64990234375.02001953125.97998046875.02001953125,7.580078125,0,14.72998046875-1.8900146484375,21-5.21002197265625v15.34002685546875c-6.26025390625,2.4000244140625-13.0302734375,3.760009765625-20.10009765625,3.8599853515625-.2998046875.010009765625-.60009765625.010009765625-.89990234375.010009765625-.30029296875,0-.60009765625,0-.89990234375-.010009765625-16.1201171875-.44000244140625-29.38037109375-12.47998046875-31.73046875-28.04998779296875-.23974609375-1.6099853515625-.36962890625-3.260009765625-.36962890625-4.94000244140625s.1298828125-3.33001708984375.36962890625-4.94000244140625c2.35009765625-15.57000732421875,15.6103515625-27.6099853515625,31.73046875-28.04998779296875.2998046875-.010009765625.599609375-.010009765625.89990234375-.010009765625.2998046875,0,.60009765625,0,.89990234375.010009765625,7.06982421875.0999755859375,13.83984375,1.4599609375,20.10009765625,3.8599853515625Z"/></g></g></svg>