<?xml version="1.0" encoding="UTF-8"?><svg id="b" xmlns="http://www.w3.org/2000/svg" xmlns:xlink="http://www.w3.org/1999/xlink" viewBox="0 0 91.899609374999272 161.000000000000909"><defs><clipPath id="e"><rect x=".000000000005457" width="91.899609374993815" height="161.000000000000909" fill="none"/></clipPath></defs><g id="c"><g id="d"><g clip-path="url(#e)" fill="none"><path d="m49.900146484378638,37.760009765626819l1.099853515621362-.010009765625,1.130126953128638.010009765625c12.8798828125.239990234375,25.0498046875,4.72998046875,34.869873046871362,12.30999755859375v-16.77001953125c-7.35986328125-4.19000244140625-15.469970703121362-7.1199951171875-23.989990234371362-8.54998779296875-3.47998046875-.59002685546875-7.0400390625-.91998291015625-10.639892578128638-.989990234375l-1.3701171875-.010009765625-1.429931640621362.010009765625c-2.9599609375.08001708984375-5.8798828125.40997314453125-8.739990234378638.989990234375-9.969970703121362,2.02001953125-19.1201171875,6.97998046875-26.360107421871362,14.40997314453125-2.909912109378638,2.99005126953125-5.409912109378638,6.27001953125-7.469970703128638,9.77001953125-4.559814453121362,7.760009765625-7,16.6199951171875-7,25.82000732421875s2.440185546878638,18.05999755859375,7,25.82000732421875c2.06005859375,3.5,4.56005859375,6.77996826171875,7.469970703128638,9.77001953125,7.239990234371362,7.42999267578125,16.39013671875,12.38995361328125,26.360107421871362,14.40997314453125,2.860107421878638.5799560546875,5.780029296878638.90997314453125,8.739990234378638.989990234375l1.429931640621362.010009765625,1.3701171875-.010009765625c3.599853515628638-.07000732421875,7.14990234375-.4000244140625,10.6298828125-.989990234375,8.52001953125-1.42999267578125,16.630126953128638-4.3699951171875,24-8.54998779296875v-16.77001953125c-9.820068359371362,7.58001708984375-21.989990234371362,12.07000732421875-34.869873046871362,12.30999755859375l-1.130126953128638.010009765625-1.099853515621362-.010009765625c-20.14013671875-.5899658203125-35.900146484378638-16.83001708984375-35.900146484378638-36.989990234375s15.760009765628638-36.4000244140625,35.900146484378638-36.989990234375Z"/></g></g></g></svg>