<?xml version="1.0" encoding="UTF-8"?><svg id="b" xmlns="http://www.w3.org/2000/svg" xmlns:xlink="http://www.w3.org/1999/xlink" viewBox="0 0 30.899999999999636 161.000000000000909"><defs><clipPath id="e"><rect x=".000000000005457" width="30.899999999994179" height="161.000000000000909" fill="none"/></clipPath></defs><g id="c"><g id="d"><g clip-path="url(#e)" fill="none"><path d="m10.985546874999272,147.011718750002728h.009765625-.009765625Zm-10.985546874999272-4.061718750000182l3.520000000000437,2.050000000000182c2.089999999998327,1.220000000000255,4.489999999999782,1.900000000000546,6.929999999998472,1.980000000000473h.950000000000728c2.030000000000655-.190000000000509,3.600000000000364-1.910000000000764,3.600000000000364-3.980000000000473,0-2.210000000000036-1.790000000000873-4-4-4H3.229999999999563l2.209999999999127-21h14.070000000001528l-.909999999999854,8.680000000000291c6.139999999999418,2.869999999999891,10.399999999999636,9.109999999999673,10.399999999999636,16.319999999999709,0,9.5-7.390000000001237,17.369999999999891-16.850000000000364,17.960000000000036-.3799999999992.029999999999745-.760000000000218.039999999999964-1.149999999999636.039999999999964-.340000000000146,0-.680000000000291-.010000000000218-1.010000000000218-.029999999999745-3.440000000000509-.109999999999673-6.829999999999927-.840000000000146-9.989999999999782-2.140000000000327v-15.880000000000109Z"/></g></g></g></svg>