<?xml version="1.0" encoding="UTF-8"?><svg id="b" xmlns="http://www.w3.org/2000/svg" xmlns:xlink="http://www.w3.org/1999/xlink" viewBox="0 0 62.809609375000946 161.000000000000909"><defs><clipPath id="e"><rect x=".000000000009095" width="62.809609374991851" height="161.000000000000909" fill="none"/></clipPath></defs><g id="c"><g id="d"><g clip-path="url(#e)" fill="none"><path d="m54,79.210021972657159v-15.34002685546875c-4.0302734375-1.53997802734375-8.26025390625-2.65997314453125-12.64990234375-3.27996826171875v-17.59002685546875h-14v17.489990234375c-13.92041015625,2.4100341796875-24.8701171875,13.55999755859375-26.97998046875,27.57000732421875-.240234375,1.6099853515625-.3701171875,3.260009765625-.3701171875,4.94000244140625s.1298828125,3.33001708984375.3701171875,4.94000244140625c2.10986328125,14.010009765625,13.0595703125,25.15997314453125,26.97998046875,27.57000732421875l.000024218748877,9.489990234375h14l-.000024218748877-9.59002685546875c4.3896484375-.6199951171875,8.61962890625-1.739990234375,12.64990234375-3.27996826171875v-15.34002685546875c-3.91015625,2.07000732421875-8.16015625,3.58001708984375-12.64990234375,4.42999267578125v-36.43994140625c4.48974609375.8499755859375,8.73974609375,2.3599853515625,12.64990234375,4.42999267578125Zm-40,13.78997802734375c0-8.510009765625,5.6298828125-15.739990234375,13.35009765625-18.1400146484375v36.280029296875c-7.72021484375-2.4000244140625-13.35009765625-9.6300048828125-13.35009765625-18.1400146484375Z"/></g></g></g></svg>