<?xml version="1.0" encoding="UTF-8"?><svg id="b" xmlns="http://www.w3.org/2000/svg" xmlns:xlink="http://www.w3.org/1999/xlink" viewBox="0 0 62.809609375000946 161.000000000000909"><defs><clipPath id="e"><rect x=".000000000009095" width="62.809609374991851" height="161.000000000000909" fill="none"/></clipPath></defs><g id="c"><g id="d"><g clip-path="url(#e)" fill="none"><path d="m50.2099609375,81.520019531250909v-.010009765625l8.43994140625-8.44000244140625-9.89990234375-9.8900146484375-8.43994140625,8.42999267578125c-6.85009765625-3.5999755859375-15.10986328125-3.5999755859375-21.97021484375,0l-8.43994140625-8.42999267578125L0,73.070007324219659l8.43017578125,8.44000244140625c-3.59033203125,6.8499755859375-3.59033203125,15.1199951171875.009765625,21.969970703125L0,111.929992675782159l9.89990234375,9.8900146484375,8.43994140625-8.42999267578125c3.419921875,1.79998779296875,7.2001953125,2.70001220703125,10.97998046875,2.70001220703125,3.02001953125,0,6.0400390625-.57000732421875,8.89013671875-1.73004150390625.7099609375-.28997802734375,1.419921875-.6099853515625,2.10009765625-.969970703125l8.43994140625,8.42999267578125,9.89990234375-9.8900146484375-8.43994140625-8.44000244140625c3.60009765625-6.8499755859375,3.60009765625-15.1199951171875,0-21.969970703125Zm-27.669921875,17.76995849609375c-3.75-3.75-3.75-9.8299560546875-.009765625-13.5799560546875,1.8798828125-1.8699951171875,4.32958984375-2.800048828125,6.78955078125-2.800048828125,2.46044921875,0,4.92041015625.9300537109375,6.7900390625,2.800048828125,1.8701171875,1.8699951171875,2.80029296875,4.3299560546875,2.80029296875,6.78997802734375s-.93017578125,4.91998291015625-2.80029296875,6.78997802734375c-3.73974609375,3.74005126953125-9.82958984375,3.74005126953125-13.56982421875,0Z"/></g></g></g></svg>