<?xml version="1.0" encoding="UTF-8"?><svg id="b" xmlns="http://www.w3.org/2000/svg" xmlns:xlink="http://www.w3.org/1999/xlink" viewBox="0 0 62.809609375000946 161.000000000000909"><defs><clipPath id="e"><rect x=".000000000009095" width="62.809609374991851" height="161.000000000000909" fill="none"/></clipPath></defs><g id="c"><g id="d"><g clip-path="url(#e)" fill="none"><path d="m51.97998046875,69.679992675782159c-3.1796875-3.17999267578125-6.89990234375-5.64996337890625-11.080078125-7.32000732421875-1.68994140625-.67999267578125-3.43994140625-1.2099609375-5.19970703125-1.5799560546875v-20.760009765625c.23974609375.19000244140625.47998046875.40997314453125.7099609375.64996337890625l9.90966796875-9.89996337890625c-.83984375-.83001708984375-1.7197265625-1.59002685546875-2.61962890625-2.260009765625-2.46044921875-1.8599853515625-5.17041015625-3.20001220703125-8-4.030029296875l.000024218748877-9.47998046875h-14l-.000024218748877,9.46002197265625c-3.96044921875,1.1199951171875-7.67041015625,3.239990234375-10.740234375,6.30999755859375-4.72998046875,4.719970703125-7.330078125,11-7.330078125,17.67999267578125s2.60009765625,12.9599609375,7.31005859375,17.65997314453125l.1201171875.1300048828125c2.990234375,2.96002197265625,6.6298828125,5.08001708984375,10.64013671875,6.22998046875v38.22003173828125c-2.41015625-.94000244140625-4.6103515625-2.3800048828125-6.490234375-4.260009765625-1.2099609375-1.20001220703125-2.22998046875-2.52996826171875-3.0400390625-3.96002197265625l-12.169921875,6.9200439453125c1.43994140625,2.51995849609375,3.22021484375,4.8499755859375,5.30029296875,6.94000244140625,4.5595703125,4.55999755859375,10.2294921875,7.6300048828125,16.39990234375,8.93994140625l.000024218748877,9.73004150390625h14l-.000024218748877-9.760009765625c6.11962890625-1.32000732421875,11.73974609375-4.3800048828125,16.259765625-8.90997314453125,6.240234375-6.23004150390625,9.68017578125-14.52001953125,9.68017578125-23.33001708984375s-3.43994140625-17.0999755859375-9.66015625-23.32000732421875Zm-30.27978515625-12.70001220703125c-.2802734375-.219970703125-.55029296875-.4599609375-.81005859375-.719970703125l-.0302734375-.030029296875c-2.080078125-2.0799560546875-3.22998046875-4.8399658203125-3.22998046875-7.77996826171875s1.14990234375-5.70001220703125,3.22998046875-7.780029296875c.27001953125-.26995849609375.55029296875-.51995849609375.84033203125-.760009765625v17.07000732421875Zm20.35986328125,49.45001220703125c-1.83984375,1.85003662109375-4.009765625,3.27001953125-6.35986328125,4.21002197265625v-35.280029296875c2.39990234375.96002197265625,4.52978515625,2.3699951171875,6.36962890625,4.21002197265625,3.59033203125,3.5899658203125,5.5703125,8.3599853515625,5.5703125,13.42999267578125s-1.97998046875,9.84002685546875-5.580078125,13.42999267578125Z"/></g></g></g></svg>