<?xml version="1.0" encoding="UTF-8"?><svg id="b" xmlns="http://www.w3.org/2000/svg" xmlns:xlink="http://www.w3.org/1999/xlink" viewBox="0 0 63.999511718748181 161.000000000000909"><defs><clipPath id="e"><rect x=".000000000005912" width="63.999511718741815" height="161.000000000000909" fill="none"/></clipPath></defs><g id="c"><g id="d"><g clip-path="url(#e)" fill="none"><path d="m46.7998046875,61.500000000000909v1.5c-4.259765625-1.96002197265625-8.93017578125-3-13.7998046875-3C14.7998046875,60.000000000000909,0,74.799987792969659,0,93.000000000000909s14.7998046875,33,33,33c4.86962890625,0,9.5400390625-1.03997802734375,13.7998046875-3v5c0,10.47998046875-8.52001953125,19-19,19-8.5498046875,0-16.86962890625-2.4100341796875-24.0498046875-6.96002197265625-1.30029296875-.83001708984375-2.55029296875-1.71002197265625-3.75-2.64996337890625v16.65997314453125c8.52001953125,4.55999755859375,18.0498046875,6.95001220703125,27.7998046875,6.95001220703125,18.2001953125,0,33-14.79998779296875,33-33V61.500000000000909h-14Zm0,44.55999755859375c-3.580078125,3.79998779296875-8.5,5.94000244140625-13.7998046875,5.94000244140625-10.47998046875,0-19-8.52001953125-19-19s8.52001953125-19,19-19c5.2998046875,0,10.2197265625,2.1400146484375,13.7998046875,5.94000244140625v26.1199951171875Z"/></g></g></g></svg>