<?xml version="1.0" encoding="UTF-8"?><svg id="b" xmlns="http://www.w3.org/2000/svg" xmlns:xlink="http://www.w3.org/1999/xlink" viewBox="0 0 91.299707031250364 161.000000000000909"><defs><clipPath id="e"><rect x=".000000000007276" width="91.299707031243088" height="161.000000000000909" fill="none"/></clipPath></defs><g id="c"><g id="d"><g clip-path="url(#e)" fill="none"><path d="m14,74.750000000000909c0,20.15997314453125,15.760009765630457,36.4000244140625,35.900146484380457,36.989990234375l1.099853515619543.010009765625,1.130126953130457-.010009765625c7.280029296869543-.1400146484375,14.340087890619543-1.6300048828125,20.869873046869543-4.27001953125v-24.469970703125h-26v-14h40v47.20001220703125c-7.369873046869543,4.17999267578125-15.47998046875,7.1199951171875-24,8.54998779296875-3.47998046875.5899658203125-7.02978515625.91998291015625-10.6298828125.989990234375l-1.3701171875.010009765625-1.429931640619543-.010009765625c-2.9599609375-.08001708984375-5.8798828125-.4100341796875-8.739990234380457-.989990234375-9.969970703119543-2.02001953125-19.1201171875-6.97998046875-26.35986328125-14.40997314453125-2.91015625-2.99005126953125-5.41015625-6.27001953125-7.47021484375-9.77001953125-4.559814453119543-7.760009765625-7-16.6199951171875-7-25.82000732421875s2.440185546880457-18.05999755859375,7-25.82000732421875c2.06005859375-3.5,4.56005859375-6.77996826171875,7.47021484375-9.77001953125,7.23974609375-7.42999267578125,16.389892578130457-12.38995361328125,26.35986328125-14.40997314453125,2.860107421880457-.58001708984375,5.780029296880457-.90997314453125,8.739990234380457-.989990234375l1.429931640619543-.010009765625,1.3701171875.010009765625c3.60009765625.07000732421875,7.159912109380457.39996337890625,10.639892578130457.989990234375,8.52001953125,1.42999267578125,16.630126953119543,4.3599853515625,23.989990234369543,8.54998779296875v16.77001953125c-9.81982421875-7.58001708984375-21.989990234369543-12.07000732421875-34.869873046869543-12.30999755859375l-1.130126953130457-.010009765625-1.099853515619543.010009765625c-20.14013671875.5899658203125-35.900146484380457,16.83001708984375-35.900146484380457,36.989990234375Z"/></g></g></g></svg>