<?xml version="1.0" encoding="UTF-8"?><svg id="b" xmlns="http://www.w3.org/2000/svg" xmlns:xlink="http://www.w3.org/1999/xlink" viewBox="0 0 93.299609375000728 161.000000000000909"><defs><clipPath id="e"><rect x=".000000000010914" width="93.299609374989814" height="161.000000000000909" fill="none"/></clipPath></defs><g id="c"><g id="d"><g clip-path="url(#e)" fill="none"><path d="m92,85.500000000000909v39h-14v-39c0-6.8900146484375-5.60986328125-12.5-12.5-12.5s-12.5,5.6099853515625-12.5,12.5v39h-14v-39c0-6.8900146484375-5.60986328125-12.5-12.5-12.5s-12.5,5.6099853515625-12.5,12.5v39H0V60.000000000000909h14v2.1400146484375c3.72998046875-2,7.990234375-3.1400146484375,12.5-3.1400146484375,7.7099609375,0,14.66015625,3.30999755859375,19.5,8.58001708984375,4.83984375-5.27001953125,11.7900390625-8.58001708984375,19.5-8.58001708984375,14.60986328125,0,26.5,11.8900146484375,26.5,26.5Z"/></g></g></g></svg>