<?xml version="1.0" encoding="UTF-8"?><svg id="b" xmlns="http://www.w3.org/2000/svg" xmlns:xlink="http://www.w3.org/1999/xlink" viewBox="0 0 89.492466517855064 161.000000000000909"><defs><clipPath id="e"><rect x=".000000000015461" width="89.492466517838693" height="161.000000000000909" fill="none"/></clipPath></defs><g id="c"><g id="d"><g clip-path="url(#e)" fill="none"><path d="m78,111.000000000000909v14H0v-14h13.5595703125c2.2099609375-10.3900146484375,5.080078125-23.90997314453125,7.83984375-36.91998291015625H0v-14h24.3798828125c1.759765625-8.29998779296875,3.33984375-15.73004150390625,4.4892578125-21.1500244140625,1.6806640625-8.05999755859375,8.890625-13.92999267578125,17.0703125-13.92999267578125h.2705078125c3.509765625-.030029296875,6.9697265625.46002197265625,10.2998046875,1.40997314453125v14.96002197265625c-3.150390625-1.54998779296875-6.58984375-2.3699951171875-10.0703125-2.3699951171875h-.0302734375v.010009765625l-.5498046875-.010009765625c-1.5595703125.05999755859375-2.9296875,1.19000244140625-3.279296875,2.75h.009765625c-1.0205078125,4.780029296875-2.3798828125,11.15997314453125-3.900390625,18.33001708984375h17.8203125v14h-20.7998046875c-.1904296875.89996337890625-.3798828125,1.80999755859375-.5703125,2.719970703125-2.5205078125,11.8900146484375-5.1396484375,24.21002197265625-7.2705078125,34.20001220703125h50.130859375Z"/></g></g></g></svg>