<?xml version="1.0" encoding="UTF-8"?><svg id="b" xmlns="http://www.w3.org/2000/svg" xmlns:xlink="http://www.w3.org/1999/xlink" viewBox="0 0 105.499414062500364 161.000000000000909"><defs><clipPath id="e"><rect x=".000000000006366" width="105.499414062493997" height="161.000000000000909" fill="none"/></clipPath></defs><g id="c"><g id="d"><g clip-path="url(#e)" fill="none"><path d="m102,74.750000000001819c0-28.1199951171875-22.8798828125-51-51-51S0,46.630004882814319,0,74.750000000001819s22.8798828125,51,51,51c11.340087890630457,0,21.830078125-3.719970703125,30.300048828130457-10l11.510009765619543,10,9.18994140625-10.57000732421875-10.659912109369543-9.260009765625c6.679931640619543-8.6300048828125,10.659912109369543-19.44000244140625,10.659912109369543-31.16998291015625Zm-49.06005859375-2.21002197265625l-9.179931640619543,10.57000732421875,26.619873046869543,23.1400146484375c-5.639892578119543,3.489990234375-12.27978515625,5.5-19.3798828125,5.5-20.39990234375,0-37-16.5999755859375-37-37s16.60009765625-37,37-37,37,16.5999755859375,37,37c0,8.219970703125-2.68994140625,15.82000732421875-7.25,21.96002197265625l-27.81005859375-24.1700439453125Z"/></g></g></g></svg>