<?xml version="1.0" encoding="UTF-8"?><svg id="b" xmlns="http://www.w3.org/2000/svg" xmlns:xlink="http://www.w3.org/1999/xlink" viewBox="0 0 52.039609375000509 161.000000000000909"><defs><clipPath id="e"><rect x=".000000000005912" width="52.039609374994143" height="161.000000000000909" fill="none"/></clipPath></defs><g id="c"><g id="d"><g clip-path="url(#e)" fill="none"><path d="m0,104.780000000002474l3.020000000000437,1.450000000000728c8.010000000000218,3.829999999999927,16.600000000000364,5.769999999999527,25.549999999999272,5.769999999999527,4.180000000000291,0,7.579999999999927-3.399999999999636,7.579999999999927-7.579999999999927,0-4.170000000000073-3.399999999999636-7.569999999999709-7.579999999999927-7.569999999999709h-9.649999999999636c-10.430000000000291,0-18.920000000000073-8.489999999999782-18.920000000000073-18.930000000000291,0-10.430000000000291,8.489999999999782-18.920000000000073,18.920000000000073-18.920000000000073,8.130000000001019,0,16.270000000000437.699999999999818,24.229999999999563,2.110000000000582v14.209999999999127l-1.269999999998618-.229999999999563c-7.530000000000655-1.390000000000327-15.25-2.090000000000146-22.960000000000946-2.090000000000146-2.709999999999127,0-4.920000000000073,2.210000000000036-4.920000000000073,4.920000000000073,0,2.720000000000255,2.210000000000946,4.930000000000291,4.920000000000073,4.930000000000291h9.649999999999636c5.6200000000008,0,10.75,2.159999999999854,14.579999999999927,5.6899999999996,4.300000000001091,3.940000000000509,7,9.600000000000364,7,15.880000000000109s-2.699999999998909,11.949999999999818-7,15.890000000000327c-3.829999999999927,3.529999999999745-8.959999999999127,5.6899999999996-14.579999999999927,5.6899999999996-9.93999999999869,0-19.539999999999054-1.9399999999996-28.569999999999709-5.789999999999964v-15.430000000000291Z"/></g></g></g></svg>