<?xml version="1.0" encoding="UTF-8"?><svg id="b" xmlns="http://www.w3.org/2000/svg" xmlns:xlink="http://www.w3.org/1999/xlink" viewBox="0 0 63.683398437500728 161.000000000000909"><defs><clipPath id="e"><rect x=".000000000005457" width="63.683398437495271" height="161.000000000000909" fill="none"/></clipPath></defs><g id="c"><g id="d"><g clip-path="url(#e)" fill="none"><path d="m28.6337890625,126.000000000002728c-8.814453125,0-17.1015625-3.43505859375-23.33203125-9.6728515625-2.0859375-2.08642578125-3.87109375-4.42041015625-5.3017578125-6.93505859375l12.16796875-6.923828125c.8115234375,1.42578125,1.8330078125,2.7587890625,3.0361328125,3.9619140625,3.5888671875,3.5927734375,8.357421875,5.56982421875,13.4296875,5.56982421875s9.8408203125-1.97705078125,13.427734375-5.5673828125c3.5947265625-3.59130859375,5.572265625-8.3603515625,5.572265625-13.4326171875s-1.9775390625-9.84130859375-5.5673828125-13.427734375c-1.833984375-1.84130859375-3.9716796875-3.2548828125-6.3662109375-4.21435546875-.9990234375-.3984375-2.0361328125-.71044921875-3.0732421875-.92431640625l-7.556640625-1.23681640625v.0009765625l-.0126953125-.00244140625-.96484375-.15966796875c-4.939453125-.90478515625-9.4375-3.24853515625-13.013671875-6.78125l-.146484375-.1455078125c-9.7265625-9.75048828125-9.7197265625-25.59716796875.0205078125-35.33837890625,8.7939453125-8.7919921875,22.86328125-9.759765625,32.751953125-2.259765625.8974609375.66650390625,1.7744140625,1.42578125,2.6064453125,2.2578125l-9.89453125,9.9033203125c-.3564453125-.35546875-.7177734375-.66943359375-1.0732421875-.9326171875l-.0810546875-.060546875c-4.341796875-3.30712890625-10.537109375-2.88134765625-14.4091796875.9912109375-4.255859375,4.25537109375-4.2900390625,11.15771484375-.103515625,15.45654296875l.1787109375.17919921875c1.5537109375,1.52880859375,3.498046875,2.54736328125,5.6328125,2.94873046875l6.2197265625,1.01416015625c.8154296875.1005859375,1.53125.21728515625,2.21484375.36083984375l.18359375.0302734375-.0009765625.00634765625.0986328125.02001953125c1.8994140625.38037109375,3.7900390625.9423828125,5.6181640625,1.67138671875,4.18359375,1.67578125,7.90625,4.13818359375,11.078125,7.3232421875,6.224609375,6.21875,9.66015625,14.5048828125,9.66015625,23.3193359375s-3.435546875,17.1005859375-9.6728515625,23.33203125c-6.2255859375,6.23291015625-14.5126953125,9.66796875-23.3271484375,9.66796875Z"/></g></g></g></svg>