<?xml version="1.0" encoding="UTF-8"?><svg id="b" xmlns="http://www.w3.org/2000/svg" xmlns:xlink="http://www.w3.org/1999/xlink" viewBox="0 0 58.939453125 161.000000000000909"><defs><clipPath id="e"><rect x=".000000000009095" width="58.939453124990905" height="161.000000000000909" fill="none"/></clipPath></defs><g id="c"><g id="d"><g clip-path="url(#e)" fill="none"><path d="m27.669921875001819,38.000000000000909c11.34033203125,0,21.419921875,5.530029296875,27.669921875,14.030029296875v-19.300048828125c-7.83984375-5.5-17.3896484375-8.72998046875-27.669921875-8.72998046875C12.410156250001819,24.000000000000909.000000000001819,36.409973144532159.000000000001819,51.669982910157159.000000000001819,53.989990234375909.290039062501819,56.309997558594659.870117187501819,58.590026855469659c1.75,6.76995849609375,5.919921875,12.39996337890625,11.43017578125,16.0799560546875-1.25,2.3900146484375-1.96044921875,5.11004638671875-1.96044921875,8,0,9.54998779296875,7.7705078125,17.33001708984375,17.330078125,17.33001708984375,6.240234375,0,11.68017578125,4.21002197265625,13.240234375,10.22998046875.27978515625,1.1300048828125.4296875,2.280029296875.4296875,3.44000244140625,0,7.530029296875-6.1298828125,13.65997314453125-13.669921875,13.65997314453125C16.330078125001819,127.329956054688409,6.250000000001819,121.799987792969659.000000000001819,113.299987792969659v19.29998779296875c7.83984375,5.5,17.39013671875,8.72998046875,27.669921875,8.72998046875,15.26025390625,0,27.669921875-12.40997314453125,27.669921875-27.65997314453125,0-.55999755859375-.01953125-1.1099853515625-.0498046875-1.66998291015625-.10986328125-1.760009765625-.3798828125-3.52001953125-.81982421875-5.25-.830078125-3.20001220703125-2.2001953125-6.1500244140625-3.990234375-8.760009765625-2-2.90997314453125-4.52978515625-5.3900146484375-7.43994140625-7.33001708984375,1.25-2.38995361328125,1.9599609375-5.1099853515625,1.9599609375-7.989990234375,0-9.55999755859375-7.77001953125-17.3399658203125-17.330078125-17.3399658203125-6.23974609375,0-11.6796875-4.21002197265625-13.23974609375-10.22003173828125-.27978515625-1.1300048828125-.43017578125-2.28997802734375-.43017578125-3.44000244140625,0-7.53997802734375,6.1298828125-13.66998291015625,13.669921875-13.66998291015625Zm0,41.33001708984375c1.84033203125,0,3.330078125,1.5,3.330078125,3.3399658203125,0,1.83001708984375-1.48974609375,3.33001708984375-3.330078125,3.33001708984375-1.83984375,0-3.330078125-1.5-3.330078125-3.33001708984375,0-1.8399658203125,1.490234375-3.3399658203125,3.330078125-3.3399658203125Z"/></g></g></g></svg>