<?xml version="1.0" encoding="UTF-8"?><svg id="b" xmlns="http://www.w3.org/2000/svg" xmlns:xlink="http://www.w3.org/1999/xlink" viewBox="0 0 89.492466517855064 161.000000000000909"><defs><clipPath id="e"><rect x=".000000000015461" width="89.492466517838693" height="161.000000000000909" fill="none"/></clipPath></defs><g id="c"><g id="d"><g clip-path="url(#e)" fill="none"><path d="m69.80078125,100.500000000000909c0,13.22998046875-10.7705078125,24-24,24-.310546875,0-.6103515625,0-.9208984375-.010009765625-4.5791015625-.07000732421875-9.0595703125-.66998291015625-13.3798828125-1.77001953125v-14.5899658203125c4.330078125,1.47998046875,8.9306640625,2.28997802734375,13.66015625,2.3599853515625l.6796875.010009765625c5.5-.02001953125,9.9609375-4.5,9.9609375-10,0-4.010009765625-2.380859375-7.6199951171875-6.0703125-9.19000244140625l-7.259765625-3.0999755859375,8.19921875-14.21002197265625h-22.669921875v50.5h-14v-50.5H0v-14h14v-18.5c0-9.33001708984375,7.2900390625-17.010009765625,16.6005859375-17.47998046875h.009765625c.2802734375-.02001953125.599609375-.010009765625.8896484375-.02001953125.25,0,.5107421875,0,.7607421875.010009765625,5.859375.1099853515625,11.5693359375,1.53997802734375,16.7392578125,4.17999267578125v17.1300048828125l-.66015625-.6199951171875c-1.01953125-.97003173828125-2.109375-1.84002685546875-3.2294921875-2.59002685546875-3.8896484375-2.5999755859375-8.4296875-4.01995849609375-13.1298828125-4.0999755859375h-.7998046875c-1.7900390625.15997314453125-3.1806640625,1.66998291015625-3.1806640625,3.489990234375v18.5h46.9306640625l-13.080078125,22.6500244140625c4.9794921875,4.469970703125,7.9501953125,10.90997314453125,7.9501953125,17.8499755859375Z"/></g></g></g></svg>