<?xml version="1.0" encoding="UTF-8"?><svg id="b" xmlns="http://www.w3.org/2000/svg" xmlns:xlink="http://www.w3.org/1999/xlink" viewBox="0 0 69.599609375 161.000000000000909"><defs><clipPath id="e"><rect x=".000000000007731" width="69.599609374991815" height="161.000000000000909" fill="none"/></clipPath></defs><g id="c"><g id="d"><g clip-path="url(#e)" fill="none"><path d="m67.080078125,60.000000000000909l-25.64013671875,64.08001708984375-.35986328125.90997314453125-1.89990234375,4.739990234375-.27001953125.6600341796875-7.5302734375,18.8299560546875c-.1201171875.34002685546875-.25.67999267578125-.41015625,1.0400390625-2.689453125,6.15997314453125-8.56982421875,10.27996826171875-15.32958984375,10.699951171875-.38037109375.030029296875-.76025390625.0400390625-1.14990234375.0400390625-.34033203125,0-.68017578125-.010009765625-1.0205078125-.030029296875-3.52978515625-.1199951171875-6.89990234375-.8599853515625-9.9794921875-2.1099853515625v-16.6300048828125c2.599609375,2.82000732421875,6.2998046875,4.6099853515625,10.4599609375,4.75h.93994140625c1.39013671875-.1300048828125,2.64013671875-1.02001953125,3.22998046875-2.29998779296875l.19970703125-.5,7.68017578125-19.19000244140625-1.75-4.3699951171875-.009765625-.010009765625-6.990234375-17.47998046875L0,60.000000000000909h15.080078125l18.4599609375,46.1500244140625,18.4599609375-46.1500244140625h15.080078125Z" fill="red"/></g></g></g></svg>