<?xml version="1.0" encoding="UTF-8"?><svg id="b" xmlns="http://www.w3.org/2000/svg" xmlns:xlink="http://www.w3.org/1999/xlink" viewBox="0 0 56.899999999999636 161.000000000000909"><defs><clipPath id="e"><rect x=".000000000011823" width="56.899999999988722" height="161.000000000000909" fill="none"/></clipPath></defs><g id="c"><g id="d"><g clip-path="url(#e)" fill="none"><path d="m21.054625233535262,63.899999999999636h14l.001953125,7.740234375c0,.85107421875-.0673828125,1.71337890625-.2060546875,2.646484375-.703125,4.60302734375-3.3984375,8.81982421875-7.3974609375,11.6005859375l-8.048828125,5.59912109375c-.3544921875.248046875-.474609375.3779296875-.4794921875.38330078125-6.748046875,7.349609375-6.5048828125,18.583984375.521484375,25.6103515625,3.4951171875,3.4951171875,8.142578125,5.419921875,13.0859375,5.419921875,4.9423828125,0,9.58984375-1.9248046875,13.083984375-5.419921875l9.900390625,9.8994140625c-6.1396484375,6.1396484375-14.302734375,9.5205078125-22.984375,9.5205078125-8.6826171875,0-16.845703125-3.380859375-22.9853515625-9.5205078125-12.345703125-12.34521484375-12.7705078125-32.0869140625-.9658203125-44.94384765625.76171875-.8408203125,1.693359375-1.64794921875,2.8154296875-2.4326171875l8.0634765625-5.609375c.849609375-.5908203125,1.427734375-1.40966796875,1.546875-2.19189453125.0322265625-.212890625.0498046875-.40234375.0498046875-.548828125h-.001953125v-7.7529296875Z"/><rect x="21.054505455560502" y="35.900000000001455" width="14.000048130837968" height="14" transform="translate(56.109059041958972 85.80000000000291) rotate(180)"/></g></g></g></svg>