<?xml version="1.0" encoding="UTF-8"?><svg id="b" xmlns="http://www.w3.org/2000/svg" xmlns:xlink="http://www.w3.org/1999/xlink" viewBox="0 0 110.259960937501091 161.000000000000909"><defs><clipPath id="e"><rect x=".000000000020464" width="110.259960937480173" height="161.000000000000909" fill="none"/></clipPath></defs><g id="c"><g id="d"><g clip-path="url(#e)" fill="none"><path d="m105.4794921875,25.000000000000909h-18.5498046875l-6.1201171875,7.03997802734375c-8.009765625-5.239990234375-17.580078125-8.28997802734375-27.849609375-8.28997802734375C24.83984375,23.750000000000909,1.9599609375,46.630004882813409,1.9599609375,74.750000000000909c0,12.80999755859375,4.75,24.53997802734375,12.58984375,33.510009765625L0,125.000000000000909h18.5498046875l6.560546875-7.53997802734375c8.009765625,5.239990234375,17.580078125,8.28997802734375,27.849609375,8.28997802734375,28.1201171875,0,51-22.8800048828125,51-51,0-12.80999755859375-4.75-24.53997802734375-12.58984375-33.510009765625l14.109375-16.239990234375ZM15.9599609375,74.750000000000909c0-20.4000244140625,16.599609375-37,37-37,6.75,0,13.08984375,1.82000732421875,18.5400390625,4.989990234375l-47.650390625,54.83001708984375c-4.939453125-6.28997802734375-7.8896484375-14.22003173828125-7.8896484375-22.82000732421875Zm74,0c0,20.4000244140625-16.599609375,37-37,37-6.759765625,0-13.08984375-1.82000732421875-18.5498046875-5l47.66015625-54.82000732421875c4.939453125,6.28997802734375,7.8896484375,14.22003173828125,7.8896484375,22.82000732421875Z"/></g></g></g></svg>