<?xml version="1.0" encoding="UTF-8"?><svg id="Layer_2" xmlns="http://www.w3.org/2000/svg" xmlns:xlink="http://www.w3.org/1999/xlink" viewBox="0 0 81.600000000000364 120"><defs><style>.cls-1,.cls-2{fill:none;}.cls-2{clip-path:url(#clippath);}</style><clipPath id="clippath"><rect class="cls-1" width="81.600000000000364" height="120"/></clipPath></defs><g id="Layer_5"><g class="cls-2"><path id="_0" d="m70.570019531249272,32.840026855471478c-.42999267578125-1.52001953125-.8900146484375-3.030029296875-1.3900146484375-4.52001953125q0-.010009765625-.010009765625-.02001953125c-.969970703125-2.4599609375-2.260009765625-4.76995849609375-3.80999755859375-6.869995117188409-3.82000732421875-5.200012207030341-9.249999999999091-9.130004882811591-15.549987792967841-11.080017089842841-1.97998046875-.6099853515625-4.0400390625-1.01995849609375-6.1600341796875-1.2099609375-.94000244140625-.10003662109375-1.88995361328125-.1400146484375-2.8499755859375-.1400146484375s-1.90997314453125.03997802734375-2.8499755859375.1400146484375c-2.1199951171875.19000244140625-4.1800537109375.5999755859375-6.1600341796875,1.2099609375-6.29998779296875,1.95001220703125-11.72998046875,5.8800048828125-15.54998779296875,11.080017089842841-1.54998779296875,2.100036621094659-2.84002685546875,4.410034179688409-3.80999755859375,6.869995117188409q-.010009765625.010009765625-.010009765625.02001953125c-.58001708984375,1.46002197265625-1.03997802734375,2.969970703125-1.3900146484375,4.52001953125-2.42999267578125,8.63995361328125-3.72998046875,17.75-3.72998046875,27.15997314453125,0,4.04998779296875.239990234375,8.04998779296875.71002197265625,11.969970703125.3499755859375,5.8900146484375,1.52996826171875,11.56005859375,3.449951171875,16.8800048828125.010009765625.030029296875.02001953125.070007324217841.030029296875.110046386717841.27001953125.919982910157159.58001708984375,1.829956054688409.92999267578125,2.719970703125q0,.010009765625.010009765625.02001953125c.5999755859375,1.519958496094659,1.32000732421875,2.979980468750909,2.1500244140625,4.369995117188409l.00994873046875.010009765625c4.19000244140625,7.04998779296875,11.1500244140625,12.260009765625,19.3699951171875,14.14996337890625,1.300048828125.29998779296875,2.6400146484375.510009765625,3.99005126953125.6300048828125.94000244140625.0999755859375,1.88995361328125.1400146484375,2.8499755859375.1400146484375s1.90997314453125-.0400390625,2.8499755859375-.1400146484375c1.35003662109375-.1199951171875,2.69000244140625-.33001708984375,3.99005126953125-.6300048828125,8.219970703125-1.88995361328125,15.179992675780341-7.0999755859375,19.369995117186591-14.14996337890625l.00994873046875-.010009765625c.83001708984375-1.3900146484375,1.550048828125-2.85003662109375,2.1500244140625-4.369995117188409q.010009765625-.010009765625.010009765625-.02001953125c.3499755859375-.890014648436591.65997314453125-1.799987792967841.92999267578125-2.719970703125.010009765625-.0400390625.02001953125-.080017089842841.030029296875-.110046386717841,1.91998291015625-5.3199462890625,3.0999755859375-10.989990234375,3.449951171875-16.8800048828125.47003173828125-3.91998291015625.71002197265625-7.91998291015625.71002197265625-11.969970703125,0-9.40997314453125-1.29998779296875-18.52001953125-3.72998046875-27.15997314453125Zm-10.330017089842841,30.14996337890625c-.08001708984375,2.60003662109375-.280029296875,5.1600341796875-.5999755859375,7.690002441405341v.039978027344659c-.55999755859375,4.470031738280341-1.45001220703125,8.83001708984375-2.6700439453125,13.06005859375,0,.01995849609375-.010009765625.02996826171875-.010009765625.04998779296875-.15997314453125.53997802734375-.3199462890625,1.07000732421875-.47998046875,1.599975585936591-.510009765625,1.309997558594659-1.08001708984375,2.590026855469659-1.71002197265625,3.840026855469659,0,.010009765625-.00994873046875.02996826171875-.01995849609375.03997802734375-2.91998291015625,4.6199951171875-8.08001708984375,7.69000244140625-13.95001220703125,7.69000244140625s-11.030029296875-3.07000732421875-13.95001220703125-7.69000244140625c-.010009765625-.010009765625-.01995849609375-.02996826171875-.01995849609375-.03997802734375-.6300048828125-1.25-1.20001220703125-2.530029296875-1.71002197265625-3.840026855469659-.1600341796875-.529968261717841-.32000732421875-1.059997558592841-.47998046875-1.599975585936591,0-.02001953125-.010009765625-.030029296875-.010009765625-.04998779296875-1.22003173828125-4.23004150390625-2.11004638671875-8.590026855469659-2.6700439453125-13.06005859375v-.039978027344659c-.3199462890625-2.529968261717841-.51995849609375-5.089965820311591-.5999755859375-7.690002441405341-.03997802734375-.989990234375-.05999755859375-1.989990234375-.05999755859375-2.989990234375s.02001953125-2,.05999755859375-2.989990234375c.239990234375-7.19000244140625,1.3599853515625-14.1500244140625,3.27001953125-20.7900390625,0-.019958496094659.010009765625-.029968261719659.010009765625-.049987792969659.29998779296875-1.039978027342841.6199951171875-2.070007324217841.9599609375-3.089965820311591,0-.010009765625,0-.02001953125.010009765625-.030029296875,1.34002685546875-3.140014648438409,3.6199951171875-5.78997802734375,6.489990234375-7.57000732421875,2.530029296875-1.570007324219659,5.510009765625-2.47998046875,8.70001220703125-2.47998046875s6.16998291015625.909973144530341,8.70001220703125,2.47998046875c2.8699951171875,1.780029296875,5.14996337890625,4.429992675780341,6.489990234375,7.57000732421875.010009765625.010009765625.010009765625.02001953125.010009765625.030029296875.3399658203125,1.01995849609375.65997314453125,2.04998779296875.9599609375,3.089965820311591,0,.02001953125.010009765625.030029296875.010009765625.049987792969659,1.9100341796875,6.6400146484375,3.030029296875,13.60003662109375,3.27001953125,20.7900390625.03997802734375.989990234375.05999755859375,1.989990234375.05999755859375,2.989990234375s-.02001953125,2-.05999755859375,2.989990234375Z"/></g></g></svg>