<?xml version="1.0" encoding="UTF-8"?><svg id="Layer_2" xmlns="http://www.w3.org/2000/svg" xmlns:xlink="http://www.w3.org/1999/xlink" viewBox="0 0 75.199999999999818 120"><defs><style>.cls-1,.cls-2{fill:none;}.cls-2{clip-path:url(#clippath);}</style><clipPath id="clippath"><rect class="cls-1" width="75.199999999999818" height="120"/></clipPath></defs><g id="Layer_5"><g class="cls-2"><path id="_2" d="m30.20001220703125,88.969970703125c-1.550048828125,2.190002441407159-2.8800048828125,4.5400390625-3.96002197265625,7.030029296875h39v14H10.239990234375v-2.099975585936591c0-10.140014648438409,3.21002197265625-19.530029296875,8.66998291015625-27.21002197265625.1500244140625-.220031738282159.30999755859375-.429992675782159.47003173828125-.6500244140625.3499755859375-.4599609375.7099609375-.91998291015625,1.05999755859375-1.3800048828125.20001220703125-.25.39996337890625-.5.5999755859375-.739990234375l.030029296875-.03997802734375c3.02996826171875-3.760009765625,6.39996337890625-7.22998046875,10.05999755859375-10.359985351563409l13.7099609375-11.630004882811591c1.300048828125-1.109985351563409,2.5400390625-2.27001953125,3.73004150390625-3.46002197265625.45001220703125-.450012207032159.89996337890625-.909973144532159,1.3399658203125-1.3800048828125.3800048828125-.39996337890625.739990234375-.809997558594659,1.11004638671875-1.219970703125,1.15997314453125-1.42999267578125,2.03997802734375-3.02001953125,2.6199951171875-4.67999267578125.5899658203125-1.670043945313409.8800048828125-3.410034179688409.88995361328125-5.160034179688409.02001953125-4.02001953125-1.50994873046875-8.049987792967841-4.5799560546875-11.119995117186591s-7.09002685546875-4.599975585938409-11.11004638671875-4.589965820313409c-2.239990234375,0-4.469970703125.47998046875-6.53997802734375,1.429992675782159-.28997802734375.1300048828125-.58001708984375.279968261717841-.8699951171875.42999267578125-3.77001953125,1.97998046875-7.1500244140625,4.82000732421875-9.82000732421875,8.47998046875-.3699951171875.5-.719970703125,1.02001953125-1.03997802734375,1.53997802734375l-10.57000732421875-9.179992675782159c4.469970703125-5.909973144530341,10.1300048828125-10.5,16.44000244140625-13.699951171875.47998046875-.240051269530341.969970703125-.480041503905341,1.45001220703125-.690002441405341,3.469970703125-1.530029296875,7.199951171875-2.309997558594659,10.949951171875-2.309997558594659,7.6600341796875-.02001953125,15.32000732421875,2.889953613282159,21.1600341796875,8.68994140625,5.8499755859375,5.800048828125,8.760009765625,13.410034179688409,8.739990234375,21.010009765625h-.010009765625c-.010009765625,6.590026855469659-2.239990234375,13.190002441407159-6.67999267578125,18.590026855469659-.71002197265625.77001953125-1.3900146484375,1.54998779296875-2.1199951171875,2.29998779296875-.84002685546875.890014648436591-1.69000244140625,1.760009765625-2.55999755859375,2.619995117186591-.97998046875.97998046875-4.80999755859375,4.210021972657159-5.8800048828125,5.119995117188409l-11.260009765625,9.5400390625c-3.010009765625,2.579956054686591-5.77001953125,5.42999267578125-8.260009765625,8.50994873046875l-.01995849609375.0400390625c-.1700439453125.19000244140625-.33001708984375.39996337890625-.49005126953125.5999755859375-.28997802734375.3800048828125-.5899658203125.760009765625-.87994384765625,1.1400146484375-.1300048828125.17999267578125-.260009765625.3499755859375-.3800048828125.529968261717841Z"/></g></g></svg>