<?xml version="1.0" encoding="UTF-8"?><svg id="Layer_2" xmlns="http://www.w3.org/2000/svg" xmlns:xlink="http://www.w3.org/1999/xlink" viewBox="0 0 75.199999999999818 120"><defs><style>.cls-1,.cls-2{fill:none;}.cls-2{clip-path:url(#clippath);}</style><clipPath id="clippath"><rect class="cls-1" width="75.199999999999818" height="120"/></clipPath></defs><g id="Layer_5"><g class="cls-2"><path id="_3" d="m68.719995117186954,77.5c0,1.65997314453125-.119995117186591,3.28997802734375-.359985351561591,4.8800048828125-2.360046386719659,16.19000244140625-16.300048828125,28.6199951171875-33.140014648438409,28.6199951171875-1.79998779296875,0-3.57000732421875-.1400146484375-5.29998779296875-.41998291015625-4.600036621092841-.73004150390625-8.9000244140625-2.4000244140625-12.6700439453125-4.80999755859375-.02996826171875-.010009765625-.05999755859375-.030029296875-.0799560546875-.050048828125-4.320007324217841-2.38995361328125-8.22003173828125-5.43994140625-11.570007324217841-9.01995849609375l1.22998046875-1.41998291015625,8.02001953125-9.22003173828125c2.679992675780341,3.0999755859375,5.919982910155341,5.71002197265625,9.559997558592841,7.66998291015625.010009765625.010009765625.01995849609375.010009765625.03997802734375.02001953125,2.530029296875,1.3599853515625,5.27001953125,2.40997314453125,8.150024414063409,3.07000732421875.859985351561591.1199951171875,1.72998046875.17999267578125,2.619995117186591.17999267578125,10.76995849609375,0,19.5-8.72998046875,19.5-19.5,0-9.3699951171875-6.60003662109375-17.19000244140625-15.410034179686591-19.05999755859375-.149963378907159-.03997802734375-.289978027344659-.07000732421875-.440002441407159-.09002685546875-.699951171875-.1099853515625-1.38995361328125-.199951171875-2.0899658203125-.27996826171875h-.010009765625c-3.75-.44000244140625-7.469970703125-.5-11.1199951171875-.21002197265625l7.97998046875-13.82000732421875.1300048828125-.22998046875,10.45001220703125-18.1099853515625H9.920007324218204v-14h56.3800048828125l-8.09002685546875,14-11.510009765625,19.94000244140625-.17999267578125.30999755859375c11.239990234375,4.02996826171875,19.70001220703125,13.8900146484375,21.72998046875,25.92999267578125.309997558594659,1.83001708984375.47003173828125,3.70001220703125.47003173828125,5.6199951171875Z"/></g></g></svg>