<?xml version="1.0" encoding="UTF-8"?><svg id="Layer_2" xmlns="http://www.w3.org/2000/svg" xmlns:xlink="http://www.w3.org/1999/xlink" viewBox="0 0 77.199999999999818 120"><defs><style>.cls-1,.cls-2{fill:none;}.cls-2{clip-path:url(#clippath);}</style><clipPath id="clippath"><rect class="cls-1" width="77.199999999999818" height="120"/></clipPath></defs><g id="Layer_5"><g class="cls-2"><path id="_6" d="m60.101304591208645,56.897159460929288c-5.049987792967841-4.94000244140625-11.329956054686591-7.84002685546875-17.819946289061591-8.72003173828125-.02001953125-.010009765625-.030029296875-.010009765625-.0400390625,0-5.7099609375-.76995849609375-11.589965820313409.030029296875-16.94000244140625,2.4000244140625h-.010009765625c-.409973144532159.16998291015625-.8199462890625.3599853515625-1.22998046875.58001708984375,5.989990234375-13.1199951171875,16.1099853515625-23.97003173828125,28.70001220703125-30.8800048828125l-1.25-1.7900390625-6.80999755859375-9.72998046875C27.421311915428305,18.667117957023038,14.151353419333645,34.787174109366788,7.941331446678305,54.067142371085538c-.719970703125,2.04998779296875-1.299987792969659,4.1300048828125-1.75,6.22998046875,0,.02001953125-.010009765625.050048828125-.010009765625.07000732421875-.67999267578125,3.1700439453125-1.059997558594659,6.3699951171875-1.15997314453125,9.57000732421875-.19000244140625,6.75.890014648436591,13.47003173828125,3.16998291015625,19.7900390625,0,.01995849609375.010009765625.04998779296875.02001953125.0699462890625.0899658203125.24005126953125.179992675780341.48004150390625.26995849609375.71002197265625-.00994873046875.010009765625-.00994873046875.030029296875.010009765625.03997802734375.109985351561591.30999755859375.23004150390625.61004638671875.359985351561591.9200439453125.010009765625.03997802734375.030029296875.0799560546875.050048828125.1300048828125,1.579956054688409,3.79998779296875,3.929992675782159,7.3399658203125,7.059997558594659,10.39996337890625,2.6199951171875,2.55999755859375,5.57000732421875,4.58001708984375,8.7099609375,6.0400390625,7.33001708984375,3.429931640625,15.700012207030341,3.87994384765625,23.300048828125,1.3599853515625h.00994873046875c4.630004882811591-1.52001953125,8.96002197265625-4.1500244140625,12.60003662109375-7.8800048828125,12.19000244140625-12.45001220703125,11.97998046875-32.42999267578125-.480041503907159-44.6199951171875Zm-14.949951171875,38.44000244140625c-8.330017089842841,3.739990234375-18.030029296875.3900146484375-22.360046386717841-7.46002197265625-.01995849609375-.03997802734375-.03997802734375-.08001708984375-.0699462890625-.1300048828125-.21002197265625-.3800048828125-.4000244140625-.77996826171875-.580017089844659-1.17999267578125-.440002441405341-.97998046875-.7900390625-1.989990234375-1.02001953125-3-.02001953125-.02996826171875-.029968261717841-.05999755859375-.029968261717841-.0899658203125-1.08001708984375-3.35003662109375-1.710021972657159-6.86004638671875-1.84002685546875-10.45001220703125v-.010009765625c2.79998779296875-4.45001220703125,7.05999755859375-7.8800048828125,12.099975585936591-9.6400146484375,2.380004882813409-.8499755859375,4.940002441407159-1.30999755859375,7.600036621094659-1.33001708984375,6.30999755859375.34002685546875,12.210021972655341,4.11004638671875,14.969970703125,10.280029296875,3.940002441405341,8.77996826171875.010009765625,19.08001708984375-8.769958496094659,23.010009765625Z"/></g></g></svg>