<?xml version="1.0" encoding="UTF-8"?><svg id="Layer_2" xmlns="http://www.w3.org/2000/svg" xmlns:xlink="http://www.w3.org/1999/xlink" viewBox="0 0 86.399999999998727 120"><defs><style>.cls-1,.cls-2{fill:none;}.cls-2{clip-path:url(#clippath);}</style><clipPath id="clippath"><rect class="cls-1" width="86.399999999998727" height="120"/></clipPath></defs><g id="Layer_5"><g class="cls-2"><path id="_8" d="m66.6500244140625,58.780029296875909c-.75-.69000244140625-1.530029296875-1.34002685546875-2.35003662109375-1.94000244140625,3.1500244140625-2.85003662109375,5.6300048828125-6.440002441407159,7.17999267578125-10.480041503907159v-.019958496092841c1.19000244140625-3.05999755859375,1.83001708984375-6.36004638671875,1.83001708984375-9.84002685546875,0-3.46002197265625-.6400146484375-6.760009765625-1.80999755859375-9.80999755859375-2.760009765625-7.239990234375-8.489990234375-13.010009765625-15.70001220703125-15.809997558594659-1.02996826171875-.309997558592841-2.07000732421875-.590026855467841-3.1199951171875-.820007324217841-2.57000732421875-.59002685546875-5.219970703125-.940002441407159-7.94000244140625-1.02996826171875-.510009765625-.02001953125-1.02001953125-.030029296875-1.53997802734375-.030029296875-.54998779296875,0-1.1099853515625.010009765625-1.6500244140625.03997802734375-2.69000244140625.090026855467841-5.29998779296875.44000244140625-7.8399658203125,1.02001953125-1.57000732421875.3499755859375-3.11004638671875.789978027342841-4.61004638671875,1.320007324217841-6.489990234375,2.890014648438409-11.63995361328125,8.219970703125-14.30999755859375,14.830017089844659-1.27996826171875,3.179992675780341-1.989990234375,6.649963378905341-1.989990234375,10.28997802734375,0,3.66998291015625.72003173828125,7.150024414061591,2.030029296875,10.349975585936591v.02001953125c1.5799560546875,3.890014648438409,4.02996826171875,7.340026855469659,7.0999755859375,10.090026855469659-.760009765625.57000732421875-1.489990234375,1.179992675780341-2.19000244140625,1.82000732421875-5.989990234375,5.47998046875-9.739990234375,13.359985351561591-9.739990234375,22.119995117186591,0,8.799987792969659,3.78997802734375,16.719970703125,9.83001708984375,22.199951171875,0,.010009765625.010009765625.010009765625.010009765625.010009765625.91998291015625.840026855469659,1.89996337890625,1.619995117188409,2.91998291015625,2.340026855469659,5.20001220703125,3.05999755859375,11.15997314453125,4.989990234375,17.52001953125,5.440002441405341h.01995849609375c.96002197265625.079956054688409,1.9100341796875.109985351563409,2.8900146484375.109985351563409h.010009765625c.97998046875,0,1.95001220703125-.030029296875,2.90997314453125-.109985351563409,6.3599853515625-.450012207030341,12.32000732421875-2.380004882811591,17.52001953125-5.440002441405341,1.02001953125-.72003173828125,2-1.5,2.91998291015625-2.340026855469659,0,0,.010009765625,0,.010009765625-.010009765625,6.03997802734375-5.47998046875,9.83001708984375-13.399963378905341,9.83001708984375-22.199951171875,0-8.760009765625-3.75-16.640014648436591-9.739990234375-22.119995117186591ZM29.8800048828125,27.909973144532159c.16998291015625-.2099609375.3800048828125-.42999267578125.6199951171875-.64996337890625,2-1.890014648438409,4.53997802734375-3.09002685546875,7.239990234375-3.640014648438409,1.29998779296875-.260009765625,2.72003173828125-.510009765625,3.760009765625-.559997558592841.010009765625-.010009765625.02001953125-.010009765625.030029296875,0,.54998779296875-.03997802734375,1.1099853515625-.05999755859375,1.66998291015625-.05999755859375.510009765625,0,1.02996826171875.010009765625,1.52996826171875.04998779296875.010009765625-.010009765625.02001953125-.010009765625.030029296875,0,2.0899658203125.100036621092841,4.1199951171875.44000244140625,6.05999755859375.98004150390625.29998779296875.109985351561591.5899658203125.219970703125.8800048828125.319946289061591,1.83001708984375.890014648438409,3.42999267578125,2.190002441407159,4.69000244140625,3.77001953125,1.8299560546875,2.299987792969659,2.91998291015625,5.210021972657159,2.91998291015625,8.380004882813409,0,6.28997802734375-4.30999755859375,11.58001708984375-10.1300048828125,13.08001708984375-.15997314453125.049987792967841-.33001708984375.0799560546875-.489990234375.1099853515625-.27001953125.05999755859375-.54998779296875.1099853515625-.82000732421875.1500244140625-.02001953125.009948730467841-.03997802734375.009948730467841-.05999755859375.009948730467841-1.5.240051269532159-3.04998779296875.369995117188409-4.6199951171875.369995117188409-1.27001953125,0-2.530029296875-.079956054688409-3.760009765625-.25-.010009765625,0-.02001953125,0-.02996826171875-.00994873046875-1.05999755859375-.1300048828125-2.09002685546875-.320007324219659-3.11004638671875-.570007324219659-.01995849609375-.010009765625-.04998779296875-.010009765625-.07000732421875-.02001953125-.00994873046875,0-.01995849609375-.010009765625-.02996826171875-.010009765625-5.45001220703125-1.72998046875-9.3900146484375-6.829956054686591-9.3900146484375-12.859985351561591,0-3.260009765625,1.1600341796875-6.25,3.08001708984375-8.59002685546875Zm30.80999755859375,60.1700439453125c-1.8499755859375,3.66998291015625-5.260009765625,6.25-9.15997314453125,7.559997558592841-1.8800048828125.630004882813409-3.87005615234375,1.059997558594659-5.9000244140625,1.239990234375h-.05999755859375c-.780029296875.080017089844659-1.57000732421875.119995117188409-2.3699951171875.119995117188409h-.010009765625c-.79998779296875,0-1.59002685546875-.03997802734375-2.3699951171875-.119995117188409h-.05999755859375c-2.030029296875-.179992675780341-4.02001953125-.609985351561591-5.9000244140625-1.239990234375-3.89996337890625-1.309997558592841-7.30999755859375-3.890014648436591-9.15997314453125-7.559997558592841-1.09002685546875-2.1500244140625-1.70001220703125-4.59002685546875-1.70001220703125-7.179992675782159,0-4.830017089842841,2.1500244140625-9.170043945311591,5.53997802734375-12.110046386717841.9100341796875-.5799560546875,1.80999755859375-1.139953613282159,2.73004150390625-1.719970703125,2.39996337890625-1.10003662109375,5-1.84002685546875,7.72998046875-2.169982910157159h.010009765625c1.03997802734375-.140014648436591,2.0999755859375-.200012207030341,3.17999267578125-.200012207030341h.010009765625c1.08001708984375,0,2.1400146484375.05999755859375,3.17999267578125.200012207030341h.010009765625c2.72998046875.329956054688409,5.3299560546875,1.069946289063409,7.72998046875,2.169982910157159.91998291015625.580017089842841,1.82000732421875,1.1400146484375,2.72998046875,1.719970703125,3.3900146484375,2.94000244140625,5.5400390625,7.280029296875,5.5400390625,12.110046386717841,0,2.589965820313409-.6099853515625,5.029968261719659-1.70001220703125,7.179992675782159Z"/></g></g></svg>