<?xml version="1.0" encoding="UTF-8"?><svg id="Layer_2" xmlns="http://www.w3.org/2000/svg" viewBox="0 0 64.586895503543019 102.242855187507303"><g id="Layer_5"><path id="_6" d="m55.101304591211374,48.1400146484375c-5.04998779296875-4.94000244140625-11.3299560546875-7.84002685546875-17.8199462890625-8.72003173828125-.02001953125-.010009765625-.030029296875-.010009765625-.0400390625,0-5.7099609375-.76995849609375-11.5899658203125.030029296875-16.94000244140625,2.4000244140625h-.010009765625c-.40997314453125.16998291015625-.8199462890625.3599853515625-1.22998046875.58001708984375,5.989990234375-13.1199951171875,16.1099853515625-23.97003173828125,28.70001220703125-30.8800048828125l-1.25-1.7900390625L39.701341212305124,0C22.421311915430124,9.90997314453125,9.151353419336374,26.030029296875,2.941331446680124,45.30999755859375c-.719970703125,2.04998779296875-1.29998779296875,4.1300048828125-1.75,6.22998046875,0,.02001953125-.010009765625.050048828125-.010009765625.07000732421875C.501329005273874,54.780029296875.121324122461374,57.97998046875.021348536523874,61.17999267578125c-.19000244140625,6.75.8900146484375,13.47003173828125,3.16998291015625,19.7900390625,0,.01995849609375.010009765625.04998779296875.02001953125.0699462890625.0899658203125.24005126953125.17999267578125.48004150390625.26995849609375.71002197265625-.00994873046875.010009765625-.00994873046875.030029296875.010009765625.03997802734375.1099853515625.30999755859375.23004150390625.61004638671875.3599853515625.9200439453125.010009765625.03997802734375.030029296875.0799560546875.050048828125.1300048828125,1.5799560546875,3.79998779296875,3.92999267578125,7.3399658203125,7.05999755859375,10.39996337890625,2.6199951171875,2.55999755859375,5.57000732421875,4.58001708984375,8.7099609375,6.0400390625,7.33001708984375,3.429931640625,15.70001220703125,3.87994384765625,23.300048828125,1.3599853515625h.00994873046875c4.6300048828125-1.52001953125,8.96002197265625-4.1500244140625,12.60003662109375-7.8800048828125,12.19000244140625-12.45001220703125,11.97998046875-32.42999267578125-.48004150390625-44.6199951171875Zm-14.949951171875,38.44000244140625c-8.33001708984375,3.739990234375-18.030029296875.3900146484375-22.36004638671875-7.46002197265625-.01995849609375-.03997802734375-.03997802734375-.08001708984375-.0699462890625-.1300048828125-.21002197265625-.3800048828125-.4000244140625-.77996826171875-.58001708984375-1.17999267578125-.44000244140625-.97998046875-.7900390625-1.989990234375-1.02001953125-3-.02001953125-.02996826171875-.02996826171875-.05999755859375-.02996826171875-.0899658203125-1.08001708984375-3.35003662109375-1.71002197265625-6.86004638671875-1.84002685546875-10.45001220703125v-.010009765625c2.79998779296875-4.45001220703125,7.05999755859375-7.8800048828125,12.0999755859375-9.6400146484375,2.3800048828125-.8499755859375,4.94000244140625-1.30999755859375,7.60003662109375-1.33001708984375,6.30999755859375.34002685546875,12.21002197265625,4.11004638671875,14.969970703125,10.280029296875,3.94000244140625,8.77996826171875.010009765625,19.08001708984375-8.76995849609375,23.010009765625Z"/></g></svg>