<?xml version="1.0" encoding="UTF-8"?><svg id="Layer_2" xmlns="http://www.w3.org/2000/svg" viewBox="0 0 66.3900146484375 102"><g id="Layer_5"><path id="_8" d="m56.6500244140625,49.780029296875c-.75-.69000244140625-1.530029296875-1.34002685546875-2.35003662109375-1.94000244140625,3.1500244140625-2.85003662109375,5.6300048828125-6.44000244140625,7.17999267578125-10.48004150390625v-.01995849609375c1.19000244140625-3.05999755859375,1.83001708984375-6.36004638671875,1.83001708984375-9.84002685546875,0-3.46002197265625-.6400146484375-6.760009765625-1.80999755859375-9.80999755859375-2.760009765625-7.239990234375-8.489990234375-13.010009765625-15.70001220703125-15.80999755859375-1.02996826171875-.30999755859375-2.07000732421875-.59002685546875-3.1199951171875-.82000732421875-2.57000732421875-.59002685546875-5.219970703125-.94000244140625-7.94000244140625-1.02996826171875-.510009765625-.02001953125-1.02001953125-.030029296875-1.53997802734375-.030029296875-.54998779296875,0-1.1099853515625.010009765625-1.6500244140625.03997802734375-2.69000244140625.09002685546875-5.29998779296875.44000244140625-7.8399658203125,1.02001953125-1.57000732421875.3499755859375-3.11004638671875.78997802734375-4.61004638671875,1.32000732421875-6.489990234375,2.8900146484375-11.63995361328125,8.219970703125-14.30999755859375,14.83001708984375-1.27996826171875,3.17999267578125-1.989990234375,6.64996337890625-1.989990234375,10.28997802734375,0,3.66998291015625.72003173828125,7.1500244140625,2.030029296875,10.3499755859375v.02001953125c1.5799560546875,3.8900146484375,4.02996826171875,7.34002685546875,7.0999755859375,10.09002685546875-.760009765625.57000732421875-1.489990234375,1.17999267578125-2.19000244140625,1.82000732421875C3.75,55.260009765625,0,63.1400146484375,0,71.9000244140625c0,8.79998779296875,3.78997802734375,16.719970703125,9.83001708984375,22.199951171875,0,.010009765625.010009765625.010009765625.010009765625.010009765625.91998291015625.84002685546875,1.89996337890625,1.6199951171875,2.91998291015625,2.34002685546875,5.20001220703125,3.05999755859375,11.15997314453125,4.989990234375,17.52001953125,5.44000244140625h.01995849609375c.96002197265625.0799560546875,1.9100341796875.1099853515625,2.8900146484375.1099853515625h.010009765625c.97998046875,0,1.95001220703125-.030029296875,2.90997314453125-.1099853515625,6.3599853515625-.45001220703125,12.32000732421875-2.3800048828125,17.52001953125-5.44000244140625,1.02001953125-.72003173828125,2-1.5,2.91998291015625-2.34002685546875,0,0,.010009765625,0,.010009765625-.010009765625,6.03997802734375-5.47998046875,9.83001708984375-13.39996337890625,9.83001708984375-22.199951171875,0-8.760009765625-3.75-16.6400146484375-9.739990234375-22.1199951171875ZM19.8800048828125,18.90997314453125c.16998291015625-.2099609375.3800048828125-.42999267578125.6199951171875-.64996337890625,2-1.8900146484375,4.53997802734375-3.09002685546875,7.239990234375-3.6400146484375,1.29998779296875-.260009765625,2.72003173828125-.510009765625,3.760009765625-.55999755859375.010009765625-.010009765625.02001953125-.010009765625.030029296875,0,.54998779296875-.03997802734375,1.1099853515625-.05999755859375,1.66998291015625-.05999755859375.510009765625,0,1.02996826171875.010009765625,1.52996826171875.04998779296875.010009765625-.010009765625.02001953125-.010009765625.030029296875,0,2.0899658203125.10003662109375,4.1199951171875.44000244140625,6.05999755859375.98004150390625.29998779296875.1099853515625.5899658203125.219970703125.8800048828125.3199462890625,1.83001708984375.8900146484375,3.42999267578125,2.19000244140625,4.69000244140625,3.77001953125,1.8299560546875,2.29998779296875,2.91998291015625,5.21002197265625,2.91998291015625,8.3800048828125,0,6.28997802734375-4.30999755859375,11.58001708984375-10.1300048828125,13.08001708984375-.15997314453125.04998779296875-.33001708984375.0799560546875-.489990234375.1099853515625-.27001953125.05999755859375-.54998779296875.1099853515625-.82000732421875.1500244140625-.02001953125.00994873046875-.03997802734375.00994873046875-.05999755859375.00994873046875-1.5.24005126953125-3.04998779296875.3699951171875-4.6199951171875.3699951171875-1.27001953125,0-2.530029296875-.0799560546875-3.760009765625-.25-.010009765625,0-.02001953125,0-.02996826171875-.00994873046875-1.05999755859375-.1300048828125-2.09002685546875-.32000732421875-3.11004638671875-.57000732421875-.01995849609375-.010009765625-.04998779296875-.010009765625-.07000732421875-.02001953125-.00994873046875,0-.01995849609375-.010009765625-.02996826171875-.010009765625-5.45001220703125-1.72998046875-9.3900146484375-6.8299560546875-9.3900146484375-12.8599853515625,0-3.260009765625,1.1600341796875-6.25,3.08001708984375-8.59002685546875Zm30.80999755859375,60.1700439453125c-1.8499755859375,3.66998291015625-5.260009765625,6.25-9.15997314453125,7.55999755859375-1.8800048828125.6300048828125-3.87005615234375,1.05999755859375-5.9000244140625,1.239990234375h-.05999755859375c-.780029296875.08001708984375-1.57000732421875.1199951171875-2.3699951171875.1199951171875h-.010009765625c-.79998779296875,0-1.59002685546875-.03997802734375-2.3699951171875-.1199951171875h-.05999755859375c-2.030029296875-.17999267578125-4.02001953125-.6099853515625-5.9000244140625-1.239990234375-3.89996337890625-1.30999755859375-7.30999755859375-3.8900146484375-9.15997314453125-7.55999755859375-1.09002685546875-2.1500244140625-1.70001220703125-4.59002685546875-1.70001220703125-7.17999267578125,0-4.83001708984375,2.1500244140625-9.1700439453125,5.53997802734375-12.11004638671875.9100341796875-.5799560546875,1.80999755859375-1.13995361328125,2.73004150390625-1.719970703125,2.39996337890625-1.10003662109375,5-1.84002685546875,7.72998046875-2.16998291015625h.010009765625c1.03997802734375-.1400146484375,2.0999755859375-.20001220703125,3.17999267578125-.20001220703125h.010009765625c1.08001708984375,0,2.1400146484375.05999755859375,3.17999267578125.20001220703125h.010009765625c2.72998046875.3299560546875,5.3299560546875,1.0699462890625,7.72998046875,2.16998291015625.91998291015625.58001708984375,1.82000732421875,1.1400146484375,2.72998046875,1.719970703125,3.3900146484375,2.94000244140625,5.5400390625,7.280029296875,5.5400390625,12.11004638671875,0,2.5899658203125-.6099853515625,5.02996826171875-1.70001220703125,7.17999267578125Z"/></g></svg>