<?xml version="1.0" encoding="UTF-8"?><svg id="Layer_2" xmlns="http://www.w3.org/2000/svg" viewBox="0 0 67 102"><g id="Layer_5"><path id="_0" d="m63.27001953125,23.84002685546875c-.42999267578125-1.52001953125-.8900146484375-3.030029296875-1.3900146484375-4.52001953125q0-.010009765625-.010009765625-.02001953125c-.969970703125-2.4599609375-2.260009765625-4.76995849609375-3.80999755859375-6.8699951171875-3.82000732421875-5.20001220703125-9.25-9.1300048828125-15.54998779296875-11.08001708984375-1.97998046875-.6099853515625-4.0400390625-1.01995849609375-6.1600341796875-1.2099609375-.94000244140625-.10003662109375-1.88995361328125-.1400146484375-2.8499755859375-.1400146484375s-1.90997314453125.03997802734375-2.8499755859375.1400146484375c-2.1199951171875.19000244140625-4.1800537109375.5999755859375-6.1600341796875,1.2099609375-6.29998779296875,1.95001220703125-11.72998046875,5.8800048828125-15.54998779296875,11.08001708984375-1.54998779296875,2.10003662109375-2.84002685546875,4.4100341796875-3.80999755859375,6.8699951171875q-.010009765625.010009765625-.010009765625.02001953125c-.58001708984375,1.46002197265625-1.03997802734375,2.969970703125-1.3900146484375,4.52001953125C1.29998779296875,32.47998046875,0,41.59002685546875,0,51c0,4.04998779296875.239990234375,8.04998779296875.71002197265625,11.969970703125.3499755859375,5.8900146484375,1.52996826171875,11.56005859375,3.449951171875,16.8800048828125.010009765625.030029296875.02001953125.07000732421875.030029296875.11004638671875.27001953125.91998291015625.58001708984375,1.8299560546875.92999267578125,2.719970703125q0,.010009765625.010009765625.02001953125c.5999755859375,1.51995849609375,1.32000732421875,2.97998046875,2.1500244140625,4.3699951171875l.00994873046875.010009765625c4.19000244140625,7.04998779296875,11.1500244140625,12.260009765625,19.3699951171875,14.14996337890625,1.300048828125.29998779296875,2.6400146484375.510009765625,3.99005126953125.6300048828125.94000244140625.0999755859375,1.88995361328125.1400146484375,2.8499755859375.1400146484375s1.90997314453125-.0400390625,2.8499755859375-.1400146484375c1.35003662109375-.1199951171875,2.69000244140625-.33001708984375,3.99005126953125-.6300048828125,8.219970703125-1.88995361328125,15.17999267578125-7.0999755859375,19.3699951171875-14.14996337890625l.00994873046875-.010009765625c.83001708984375-1.3900146484375,1.550048828125-2.85003662109375,2.1500244140625-4.3699951171875q.010009765625-.010009765625.010009765625-.02001953125c.3499755859375-.8900146484375.65997314453125-1.79998779296875.92999267578125-2.719970703125.010009765625-.0400390625.02001953125-.08001708984375.030029296875-.11004638671875,1.91998291015625-5.3199462890625,3.0999755859375-10.989990234375,3.449951171875-16.8800048828125.47003173828125-3.91998291015625.71002197265625-7.91998291015625.71002197265625-11.969970703125,0-9.40997314453125-1.29998779296875-18.52001953125-3.72998046875-27.15997314453125Zm-10.33001708984375,30.14996337890625c-.08001708984375,2.60003662109375-.280029296875,5.1600341796875-.5999755859375,7.69000244140625v.03997802734375c-.55999755859375,4.47003173828125-1.45001220703125,8.83001708984375-2.6700439453125,13.06005859375,0,.01995849609375-.010009765625.02996826171875-.010009765625.04998779296875-.15997314453125.53997802734375-.3199462890625,1.07000732421875-.47998046875,1.5999755859375-.510009765625,1.30999755859375-1.08001708984375,2.59002685546875-1.71002197265625,3.84002685546875,0,.010009765625-.00994873046875.02996826171875-.01995849609375.03997802734375-2.91998291015625,4.6199951171875-8.08001708984375,7.69000244140625-13.95001220703125,7.69000244140625s-11.030029296875-3.07000732421875-13.95001220703125-7.69000244140625c-.010009765625-.010009765625-.01995849609375-.02996826171875-.01995849609375-.03997802734375-.6300048828125-1.25-1.20001220703125-2.530029296875-1.71002197265625-3.84002685546875-.1600341796875-.52996826171875-.32000732421875-1.05999755859375-.47998046875-1.5999755859375,0-.02001953125-.010009765625-.030029296875-.010009765625-.04998779296875-1.22003173828125-4.23004150390625-2.11004638671875-8.59002685546875-2.6700439453125-13.06005859375v-.03997802734375c-.3199462890625-2.52996826171875-.51995849609375-5.0899658203125-.5999755859375-7.69000244140625-.03997802734375-.989990234375-.05999755859375-1.989990234375-.05999755859375-2.989990234375s.02001953125-2,.05999755859375-2.989990234375c.239990234375-7.19000244140625,1.3599853515625-14.1500244140625,3.27001953125-20.7900390625,0-.01995849609375.010009765625-.02996826171875.010009765625-.04998779296875.29998779296875-1.03997802734375.6199951171875-2.07000732421875.9599609375-3.0899658203125,0-.010009765625,0-.02001953125.010009765625-.030029296875,1.34002685546875-3.1400146484375,3.6199951171875-5.78997802734375,6.489990234375-7.57000732421875,2.530029296875-1.57000732421875,5.510009765625-2.47998046875,8.70001220703125-2.47998046875s6.16998291015625.90997314453125,8.70001220703125,2.47998046875c2.8699951171875,1.780029296875,5.14996337890625,4.42999267578125,6.489990234375,7.57000732421875.010009765625.010009765625.010009765625.02001953125.010009765625.030029296875.3399658203125,1.01995849609375.65997314453125,2.04998779296875.9599609375,3.0899658203125,0,.02001953125.010009765625.030029296875.010009765625.04998779296875,1.9100341796875,6.6400146484375,3.030029296875,13.60003662109375,3.27001953125,20.7900390625.03997802734375.989990234375.05999755859375,1.989990234375.05999755859375,2.989990234375s-.02001953125,2-.05999755859375,2.989990234375Z"/></g></svg>