<?xml version="1.0" encoding="UTF-8"?><svg id="Layer_2" xmlns="http://www.w3.org/2000/svg" viewBox="0 0 63.1199951171875 99.29998779296875"><g id="Layer_5"><path id="_3" d="m63.1199951171875,65.79998779296875c0,1.65997314453125-.1199951171875,3.28997802734375-.3599853515625,4.8800048828125-2.36004638671875,16.19000244140625-16.300048828125,28.6199951171875-33.1400146484375,28.6199951171875-1.79998779296875,0-3.57000732421875-.1400146484375-5.29998779296875-.41998291015625-4.60003662109375-.73004150390625-8.9000244140625-2.4000244140625-12.6700439453125-4.80999755859375-.02996826171875-.010009765625-.05999755859375-.030029296875-.0799560546875-.050048828125-4.32000732421875-2.38995361328125-8.22003173828125-5.43994140625-11.57000732421875-9.01995849609375l1.22998046875-1.41998291015625,8.02001953125-9.22003173828125c2.67999267578125,3.0999755859375,5.91998291015625,5.71002197265625,9.55999755859375,7.66998291015625.010009765625.010009765625.01995849609375.010009765625.03997802734375.02001953125,2.530029296875,1.3599853515625,5.27001953125,2.40997314453125,8.1500244140625,3.07000732421875.8599853515625.1199951171875,1.72998046875.17999267578125,2.6199951171875.17999267578125,10.76995849609375,0,19.5-8.72998046875,19.5-19.5,0-9.3699951171875-6.60003662109375-17.19000244140625-15.4100341796875-19.05999755859375-.14996337890625-.03997802734375-.28997802734375-.07000732421875-.44000244140625-.09002685546875-.699951171875-.1099853515625-1.38995361328125-.199951171875-2.0899658203125-.27996826171875h-.010009765625c-3.75-.44000244140625-7.469970703125-.5-11.1199951171875-.21002197265625l7.97998046875-13.82000732421875.1300048828125-.22998046875,10.45001220703125-18.1099853515625H4.32000732421875V0h56.3800048828125l-8.09002685546875,14-11.510009765625,19.94000244140625-.17999267578125.30999755859375c11.239990234375,4.02996826171875,19.70001220703125,13.8900146484375,21.72998046875,25.92999267578125.30999755859375,1.83001708984375.47003173828125,3.70001220703125.47003173828125,5.6199951171875Z"/></g></svg>