<?xml version="1.0" encoding="UTF-8"?><svg id="Layer_2" xmlns="http://www.w3.org/2000/svg" viewBox="0 0 65 101.52996826171875"><g id="Layer_5"><path id="_9" d="m64.91998291015625,36.1500244140625c-.3299560546875-5.69000244140625-1.739990234375-11.10003662109375-4.02996826171875-16.010009765625-1.739990234375-4.5-4.48004150390625-8.5-7.95001220703125-11.73004150390625-2.70001220703125-2.50994873046875-5.84002685546875-4.54998779296875-9.29998779296875-5.989990234375-3.739990234375-1.55999755859375-7.84002685546875-2.41998291015625-12.1400146484375-2.41998291015625C21.53997802734375,0,12.65997314453125,4.6199951171875,6.8800048828125,11.84002685546875,2.57000732421875,17.219970703125,0,24.05999755859375,0,31.5c0,17.4000244140625,14.0999755859375,31.5,31.5,31.5,3.1400146484375,0,6.16998291015625-.46002197265625,9.030029296875-1.30999755859375,1.67999267578125-.5,3.29998779296875-1.1400146484375,4.8499755859375-1.9000244140625-3.760009765625,8.59002685546875-9.280029296875,16.23004150390625-16.09002685546875,22.48004150390625-4.19000244140625,3.8399658203125-8.8800048828125,7.15997314453125-13.949951171875,9.8299560546875l11.64996337890625,9.42999267578125c16.760009765625-10.489990234375,29.4000244140625-26.969970703125,34.92999267578125-46.43994140625.010009765625-.02001953125.010009765625-.0400390625.010009765625-.050048828125,1.97998046875-5.02996826171875,3.07000732421875-10.50994873046875,3.07000732421875-16.239990234375,0-.8900146484375-.030029296875-1.76995849609375-.08001708984375-2.64996337890625Zm-26.5899658203125,11.4599609375s-.010009765625.010009765625-.02001953125.010009765625c-2.33001708984375.83001708984375-4.83001708984375,1.30999755859375-7.44000244140625,1.3699951171875-9.3699951171875-.33001708984375-16.8699951171875-8.03997802734375-16.8699951171875-17.489990234375,0-9.65997314453125,7.84002685546875-17.5,17.5-17.5,4.45001220703125,0,8.510009765625,1.65997314453125,11.5999755859375,4.40997314453125l.02001953125.02001953125c1.95001220703125,2.1400146484375,3.59002685546875,4.54998779296875,4.8599853515625,7.17999267578125,1.61004638671875,3.30999755859375,2.6300048828125,6.97003173828125,2.9200439453125,10.82000732421875v.02001953125c.02996826171875.20001220703125.03997802734375.3900146484375.03997802734375.5899658203125v.010009765625c-.030029296875.04998779296875-.05999755859375.1099853515625-.09002685546875.1600341796875-2.79998779296875,4.78997802734375-7.22998046875,8.5-12.51995849609375,10.39996337890625Z"/></g></svg>