<?xml version="1.0" encoding="UTF-8"?><svg id="Layer_2" xmlns="http://www.w3.org/2000/svg" viewBox="0 0 63.79998779296875 100.29998779296875"><g id="Layer_5"><path id="_5" d="m63.79998779296875,67.29998779296875c0,1.91998291015625-.1600341796875,3.79998779296875-.47003173828125,5.6199951171875-2.66998291015625,15.54998779296875-16.219970703125,27.3800048828125-32.52996826171875,27.3800048828125-12.35003662109375,0-23.4000244140625-5.54998779296875-30.79998779296875-14.29998779296875l9.9599609375-9.96002197265625c4.79998779296875,6.239990234375,12.35003662109375,10.260009765625,20.84002685546875,10.260009765625,10.489990234375,0,19-8.510009765625,19-19,0-7.90997314453125-4.83001708984375-14.69000244140625-11.71002197265625-17.54998779296875-.25-.1099853515625-.510009765625-.20001220703125-.760009765625-.29998779296875-2.13995361328125-.80999755859375-4.32000732421875-1.46002197265625-6.52996826171875-1.95001220703125-2.760009765625-.6099853515625-5.55999755859375-.98004150390625-8.3599853515625-1.09002685546875-4.800048828125-.2099609375-9.61004638671875.30999755859375-14.260009765625,1.530029296875l.010009765625-.07000732421875.5899658203125-5.1500244140625,1.07000732421875-9.469970703125,2.20001220703125-19.25L13.63995361328125,0h47.05999755859375v14H26.13995361328125l-2.1099853515625,18.45001220703125c5.95001220703125.3499755859375,11.96002197265625,1.5699462890625,17.84002685546875,3.75.219970703125.0799560546875.449951171875.15997314453125.66998291015625.25.3699951171875.13995361328125.739990234375.28997802734375,1.1099853515625.44000244140625,11.84002685546875,5.00994873046875,20.1500244140625,16.739990234375,20.1500244140625,30.40997314453125Z"/></g></svg>