<?xml version="1.0" encoding="UTF-8"?><svg id="Layer_2" xmlns="http://www.w3.org/2000/svg" viewBox="0 0 58.740092821254621 99.720073294130088"><g id="Layer_5"><path id="_2" d="m20.20001220703125,78.690043997255088c-1.550048828125,2.19000244140625-2.8800048828125,4.5400390625-3.96002197265625,7.030029296875h39v14H.239990234375v-2.0999755859375c0-10.1400146484375,3.21002197265625-19.530029296875,8.66998291015625-27.21002197265625.1500244140625-.22003173828125.30999755859375-.42999267578125.47003173828125-.6500244140625.3499755859375-.4599609375.7099609375-.91998291015625,1.05999755859375-1.3800048828125.20001220703125-.25.39996337890625-.5.5999755859375-.739990234375l.030029296875-.03997802734375c3.02996826171875-3.760009765625,6.39996337890625-7.22998046875,10.05999755859375-10.3599853515625l13.7099609375-11.6300048828125c1.300048828125-1.1099853515625,2.5400390625-2.27001953125,3.73004150390625-3.46002197265625.45001220703125-.45001220703125.89996337890625-.90997314453125,1.3399658203125-1.3800048828125.3800048828125-.39996337890625.739990234375-.80999755859375,1.11004638671875-1.219970703125,1.15997314453125-1.42999267578125,2.03997802734375-3.02001953125,2.6199951171875-4.67999267578125.5899658203125-1.6700439453125.8800048828125-3.4100341796875.88995361328125-5.1600341796875.02001953125-4.02001953125-1.50994873046875-8.04998779296875-4.5799560546875-11.1199951171875s-7.09002685546875-4.5999755859375-11.11004638671875-4.5899658203125c-2.239990234375,0-4.469970703125.47998046875-6.53997802734375,1.42999267578125-.28997802734375.1300048828125-.58001708984375.27996826171875-.8699951171875.42999267578125-3.77001953125,1.97998046875-7.1500244140625,4.82000732421875-9.82000732421875,8.47998046875-.3699951171875.5-.719970703125,1.02001953125-1.03997802734375,1.53997802734375L0,16.700053762880088C4.469970703125,10.790080618348838,10.1300048828125,6.200053762880088,16.44000244140625,3.000102591005088c.47998046875-.24005126953125.969970703125-.48004150390625,1.45001220703125-.69000244140625C21.3599853515625.780070852723838,25.0899658203125.000102591005088,28.8399658203125.000102591005088c7.6600341796875-.02001953125,15.32000732421875,2.88995361328125,21.1600341796875,8.68994140625,5.8499755859375,5.800048828125,8.760009765625,13.4100341796875,8.739990234375,21.010009765625h-.010009765625c-.010009765625,6.59002685546875-2.239990234375,13.19000244140625-6.67999267578125,18.59002685546875-.71002197265625.77001953125-1.3900146484375,1.54998779296875-2.1199951171875,2.29998779296875-.84002685546875.8900146484375-1.69000244140625,1.760009765625-2.55999755859375,2.6199951171875-.97998046875.97998046875-4.80999755859375,4.21002197265625-5.8800048828125,5.1199951171875l-11.260009765625,9.5400390625c-3.010009765625,2.5799560546875-5.77001953125,5.42999267578125-8.260009765625,8.50994873046875l-.01995849609375.0400390625c-.1700439453125.19000244140625-.33001708984375.39996337890625-.49005126953125.5999755859375-.28997802734375.3800048828125-.5899658203125.760009765625-.87994384765625,1.1400146484375-.1300048828125.17999267578125-.260009765625.3499755859375-.3800048828125.52996826171875Z"/></g></svg>